<?xml version="1.0" encoding="utf-8" standalone="no"?>
<!DOCTYPE svg PUBLIC "-//W3C//DTD SVG 1.1//EN"
  "http://www.w3.org/Graphics/SVG/1.1/DTD/svg11.dtd">
<!-- Created with matplotlib (https://matplotlib.org/) -->
<svg height="187.2pt" version="1.1" viewBox="0 0 324 187.2" width="324pt" xmlns="http://www.w3.org/2000/svg" xmlns:xlink="http://www.w3.org/1999/xlink">
 <defs>
  <style type="text/css">
*{stroke-linecap:butt;stroke-linejoin:round;}
  </style>
 </defs>
 <g id="figure_1">
  <g id="patch_1">
   <path d="M 0 187.2 
L 324 187.2 
L 324 0 
L 0 0 
z
" style="fill:#ffffff;"/>
  </g>
  <g id="axes_1">
   <g id="patch_2">
    <path d="M 131.47 29.416013 
L 254.849 29.416013 
L 254.849 15.696 
L 131.47 15.696 
z
" style="fill:#ffffff;"/>
   </g>
   <g id="patch_3">
    <path clip-path="url(#p955d7cce19)" d="M 137.078136 36.276019 
L 145.386487 36.276019 
L 145.386487 24.742693 
L 137.078136 24.742693 
z
" style="fill:#a9a9a9;"/>
   </g>
   <g id="patch_4">
    <path clip-path="url(#p955d7cce19)" d="M 147.463574 36.276019 
L 155.771924 36.276019 
L 155.771924 28.015748 
L 147.463574 28.015748 
z
" style="fill:#a9a9a9;"/>
   </g>
   <g id="patch_5">
    <path clip-path="url(#p955d7cce19)" d="M 157.849012 36.276019 
L 166.157362 36.276019 
L 166.157362 26.142958 
L 157.849012 26.142958 
z
" style="fill:#a9a9a9;"/>
   </g>
   <g id="patch_6">
    <path clip-path="url(#p955d7cce19)" d="M 168.234449 36.276019 
L 176.5428 36.276019 
L 176.5428 22.272052 
L 168.234449 22.272052 
z
" style="fill:#a9a9a9;"/>
   </g>
   <g id="patch_7">
    <path clip-path="url(#p955d7cce19)" d="M 178.619887 36.276019 
L 186.928237 36.276019 
L 186.928237 23.704996 
L 178.619887 23.704996 
z
" style="fill:#a9a9a9;"/>
   </g>
   <g id="patch_8">
    <path clip-path="url(#p955d7cce19)" d="M 189.005325 36.276019 
L 197.313675 36.276019 
L 197.313675 27.664842 
L 189.005325 27.664842 
z
" style="fill:#a9a9a9;"/>
   </g>
   <g id="patch_9">
    <path clip-path="url(#p955d7cce19)" d="M 199.390763 36.276019 
L 207.699113 36.276019 
L 207.699113 27.066991 
L 199.390763 27.066991 
z
" style="fill:#a9a9a9;"/>
   </g>
   <g id="patch_10">
    <path clip-path="url(#p955d7cce19)" d="M 209.7762 36.276019 
L 218.084551 36.276019 
L 218.084551 19.743862 
L 209.7762 19.743862 
z
" style="fill:#a9a9a9;"/>
   </g>
   <g id="patch_11">
    <path clip-path="url(#p955d7cce19)" d="M 220.161638 36.276019 
L 228.469988 36.276019 
L 228.469988 18.857941 
L 220.161638 18.857941 
z
" style="fill:#a9a9a9;"/>
   </g>
   <g id="patch_12">
    <path clip-path="url(#p955d7cce19)" d="M 230.547076 36.276019 
L 238.855426 36.276019 
L 238.855426 20.691171 
L 230.547076 20.691171 
z
" style="fill:#a9a9a9;"/>
   </g>
   <g id="patch_13">
    <path clip-path="url(#p955d7cce19)" d="M 240.932513 36.276019 
L 249.240864 36.276019 
L 249.240864 17.644219 
L 240.932513 17.644219 
z
" style="fill:#a9a9a9;"/>
   </g>
   <g id="matplotlib.axis_1"/>
   <g id="matplotlib.axis_2">
    <g id="ytick_1">
     <g id="line2d_1">
      <defs>
       <path d="M 0 0 
L -3.5 0 
" id="m1656ce1ac7" style="stroke:#000000;stroke-width:0.8;"/>
      </defs>
      <g>
       <use style="stroke:#000000;stroke-width:0.8;" x="131.47" xlink:href="#m1656ce1ac7" y="29.416013"/>
      </g>
     </g>
     <g id="text_1">
      <!-- $10$ -->
      <defs>
       <path d="M 12.40625 8.296875 
L 28.515625 8.296875 
L 28.515625 63.921875 
L 10.984375 60.40625 
L 10.984375 69.390625 
L 28.421875 72.90625 
L 38.28125 72.90625 
L 38.28125 8.296875 
L 54.390625 8.296875 
L 54.390625 0 
L 12.40625 0 
z
" id="DejaVuSans-49"/>
       <path d="M 31.78125 66.40625 
Q 24.171875 66.40625 20.328125 58.90625 
Q 16.5 51.421875 16.5 36.375 
Q 16.5 21.390625 20.328125 13.890625 
Q 24.171875 6.390625 31.78125 6.390625 
Q 39.453125 6.390625 43.28125 13.890625 
Q 47.125 21.390625 47.125 36.375 
Q 47.125 51.421875 43.28125 58.90625 
Q 39.453125 66.40625 31.78125 66.40625 
z
M 31.78125 74.21875 
Q 44.046875 74.21875 50.515625 64.515625 
Q 56.984375 54.828125 56.984375 36.375 
Q 56.984375 17.96875 50.515625 8.265625 
Q 44.046875 -1.421875 31.78125 -1.421875 
Q 19.53125 -1.421875 13.0625 8.265625 
Q 6.59375 17.96875 6.59375 36.375 
Q 6.59375 54.828125 13.0625 64.515625 
Q 19.53125 74.21875 31.78125 74.21875 
z
" id="DejaVuSans-48"/>
      </defs>
      <g transform="translate(112.95 32.835309)scale(0.09 -0.09)">
       <use transform="translate(0 0.78125)" xlink:href="#DejaVuSans-49"/>
       <use transform="translate(63.623047 0.78125)" xlink:href="#DejaVuSans-48"/>
      </g>
     </g>
    </g>
    <g id="ytick_2">
     <g id="line2d_2">
      <g>
       <use style="stroke:#000000;stroke-width:0.8;" x="131.47" xlink:href="#m1656ce1ac7" y="15.696"/>
      </g>
     </g>
     <g id="text_2">
      <!-- $10^3$ -->
      <defs>
       <path d="M 40.578125 39.3125 
Q 47.65625 37.796875 51.625 33 
Q 55.609375 28.21875 55.609375 21.1875 
Q 55.609375 10.40625 48.1875 4.484375 
Q 40.765625 -1.421875 27.09375 -1.421875 
Q 22.515625 -1.421875 17.65625 -0.515625 
Q 12.796875 0.390625 7.625 2.203125 
L 7.625 11.71875 
Q 11.71875 9.328125 16.59375 8.109375 
Q 21.484375 6.890625 26.8125 6.890625 
Q 36.078125 6.890625 40.9375 10.546875 
Q 45.796875 14.203125 45.796875 21.1875 
Q 45.796875 27.640625 41.28125 31.265625 
Q 36.765625 34.90625 28.71875 34.90625 
L 20.21875 34.90625 
L 20.21875 43.015625 
L 29.109375 43.015625 
Q 36.375 43.015625 40.234375 45.921875 
Q 44.09375 48.828125 44.09375 54.296875 
Q 44.09375 59.90625 40.109375 62.90625 
Q 36.140625 65.921875 28.71875 65.921875 
Q 24.65625 65.921875 20.015625 65.03125 
Q 15.375 64.15625 9.8125 62.3125 
L 9.8125 71.09375 
Q 15.4375 72.65625 20.34375 73.4375 
Q 25.25 74.21875 29.59375 74.21875 
Q 40.828125 74.21875 47.359375 69.109375 
Q 53.90625 64.015625 53.90625 55.328125 
Q 53.90625 49.265625 50.4375 45.09375 
Q 46.96875 40.921875 40.578125 39.3125 
z
" id="DejaVuSans-51"/>
      </defs>
      <g transform="translate(108.63 19.115297)scale(0.09 -0.09)">
       <use transform="translate(0 0.765625)" xlink:href="#DejaVuSans-49"/>
       <use transform="translate(63.623047 0.765625)" xlink:href="#DejaVuSans-48"/>
       <use transform="translate(128.203125 39.046875)scale(0.7)" xlink:href="#DejaVuSans-51"/>
      </g>
     </g>
    </g>
    <g id="text_3">
     <!-- # cells -->
     <defs>
      <path d="M 51.125 44 
L 36.921875 44 
L 32.8125 27.6875 
L 47.125 27.6875 
z
M 43.796875 71.78125 
L 38.71875 51.515625 
L 52.984375 51.515625 
L 58.109375 71.78125 
L 65.921875 71.78125 
L 60.890625 51.515625 
L 76.125 51.515625 
L 76.125 44 
L 58.984375 44 
L 54.984375 27.6875 
L 70.515625 27.6875 
L 70.515625 20.21875 
L 53.078125 20.21875 
L 48 0 
L 40.1875 0 
L 45.21875 20.21875 
L 30.90625 20.21875 
L 25.875 0 
L 18.015625 0 
L 23.09375 20.21875 
L 7.71875 20.21875 
L 7.71875 27.6875 
L 24.90625 27.6875 
L 29 44 
L 13.28125 44 
L 13.28125 51.515625 
L 30.90625 51.515625 
L 35.890625 71.78125 
z
" id="DejaVuSans-35"/>
      <path id="DejaVuSans-32"/>
      <path d="M 48.78125 52.59375 
L 48.78125 44.1875 
Q 44.96875 46.296875 41.140625 47.34375 
Q 37.3125 48.390625 33.40625 48.390625 
Q 24.65625 48.390625 19.8125 42.84375 
Q 14.984375 37.3125 14.984375 27.296875 
Q 14.984375 17.28125 19.8125 11.734375 
Q 24.65625 6.203125 33.40625 6.203125 
Q 37.3125 6.203125 41.140625 7.25 
Q 44.96875 8.296875 48.78125 10.40625 
L 48.78125 2.09375 
Q 45.015625 0.34375 40.984375 -0.53125 
Q 36.96875 -1.421875 32.421875 -1.421875 
Q 20.0625 -1.421875 12.78125 6.34375 
Q 5.515625 14.109375 5.515625 27.296875 
Q 5.515625 40.671875 12.859375 48.328125 
Q 20.21875 56 33.015625 56 
Q 37.15625 56 41.109375 55.140625 
Q 45.0625 54.296875 48.78125 52.59375 
z
" id="DejaVuSans-99"/>
      <path d="M 56.203125 29.59375 
L 56.203125 25.203125 
L 14.890625 25.203125 
Q 15.484375 15.921875 20.484375 11.0625 
Q 25.484375 6.203125 34.421875 6.203125 
Q 39.59375 6.203125 44.453125 7.46875 
Q 49.3125 8.734375 54.109375 11.28125 
L 54.109375 2.78125 
Q 49.265625 0.734375 44.1875 -0.34375 
Q 39.109375 -1.421875 33.890625 -1.421875 
Q 20.796875 -1.421875 13.15625 6.1875 
Q 5.515625 13.8125 5.515625 26.8125 
Q 5.515625 40.234375 12.765625 48.109375 
Q 20.015625 56 32.328125 56 
Q 43.359375 56 49.78125 48.890625 
Q 56.203125 41.796875 56.203125 29.59375 
z
M 47.21875 32.234375 
Q 47.125 39.59375 43.09375 43.984375 
Q 39.0625 48.390625 32.421875 48.390625 
Q 24.90625 48.390625 20.390625 44.140625 
Q 15.875 39.890625 15.1875 32.171875 
z
" id="DejaVuSans-101"/>
      <path d="M 9.421875 75.984375 
L 18.40625 75.984375 
L 18.40625 0 
L 9.421875 0 
z
" id="DejaVuSans-108"/>
      <path d="M 44.28125 53.078125 
L 44.28125 44.578125 
Q 40.484375 46.53125 36.375 47.5 
Q 32.28125 48.484375 27.875 48.484375 
Q 21.1875 48.484375 17.84375 46.4375 
Q 14.5 44.390625 14.5 40.28125 
Q 14.5 37.15625 16.890625 35.375 
Q 19.28125 33.59375 26.515625 31.984375 
L 29.59375 31.296875 
Q 39.15625 29.25 43.1875 25.515625 
Q 47.21875 21.78125 47.21875 15.09375 
Q 47.21875 7.46875 41.1875 3.015625 
Q 35.15625 -1.421875 24.609375 -1.421875 
Q 20.21875 -1.421875 15.453125 -0.5625 
Q 10.6875 0.296875 5.421875 2 
L 5.421875 11.28125 
Q 10.40625 8.6875 15.234375 7.390625 
Q 20.0625 6.109375 24.8125 6.109375 
Q 31.15625 6.109375 34.5625 8.28125 
Q 37.984375 10.453125 37.984375 14.40625 
Q 37.984375 18.0625 35.515625 20.015625 
Q 33.0625 21.96875 24.703125 23.78125 
L 21.578125 24.515625 
Q 13.234375 26.265625 9.515625 29.90625 
Q 5.8125 33.546875 5.8125 39.890625 
Q 5.8125 47.609375 11.28125 51.796875 
Q 16.75 56 26.8125 56 
Q 31.78125 56 36.171875 55.265625 
Q 40.578125 54.546875 44.28125 53.078125 
z
" id="DejaVuSans-115"/>
     </defs>
     <g transform="translate(70.655 25.315381)scale(0.1 -0.1)">
      <use xlink:href="#DejaVuSans-35"/>
      <use x="83.789062" xlink:href="#DejaVuSans-32"/>
      <use x="115.576172" xlink:href="#DejaVuSans-99"/>
      <use x="170.556641" xlink:href="#DejaVuSans-101"/>
      <use x="232.080078" xlink:href="#DejaVuSans-108"/>
      <use x="259.863281" xlink:href="#DejaVuSans-108"/>
      <use x="287.646484" xlink:href="#DejaVuSans-115"/>
     </g>
    </g>
   </g>
   <g id="patch_14">
    <path d="M 131.47 29.416013 
L 131.47 15.696 
" style="fill:none;stroke:#000000;stroke-linecap:square;stroke-linejoin:miter;stroke-width:0.8;"/>
   </g>
  </g>
  <g id="axes_2">
   <g id="patch_15">
    <path d="M 131.47 131.8025 
L 254.849 131.8025 
L 254.849 35.762413 
L 131.47 35.762413 
z
" style="fill:#ffffff;"/>
   </g>
   <g id="PathCollection_1">
    <defs>
     <path d="M 0 3.833333 
C 1.016612 3.833333 1.991723 3.429429 2.710576 2.710576 
C 3.429429 1.991723 3.833333 1.016612 3.833333 0 
C 3.833333 -1.016612 3.429429 -1.991723 2.710576 -2.710576 
C 1.991723 -3.429429 1.016612 -3.833333 0 -3.833333 
C -1.016612 -3.833333 -1.991723 -3.429429 -2.710576 -2.710576 
C -3.429429 -1.991723 -3.833333 -1.016612 -3.833333 0 
C -3.833333 1.016612 -3.429429 1.991723 -2.710576 2.710576 
C -1.991723 3.429429 -1.016612 3.833333 0 3.833333 
z
" id="m9d7a09abf1" style="stroke:#50b131;"/>
    </defs>
    <g clip-path="url(#pe8addabcb4)">
     <use style="fill:#50b131;stroke:#50b131;" x="137.200232" xlink:href="#m9d7a09abf1" y="40.564417"/>
    </g>
   </g>
   <g id="PathCollection_2">
    <defs>
     <path d="M 0 0 
C 0 0 0 0 0 0 
C 0 0 0 0 0 0 
C 0 0 0 0 0 0 
C 0 0 0 0 0 0 
C 0 0 0 0 0 0 
C 0 0 0 0 0 0 
C 0 0 0 0 0 0 
C 0 0 0 0 0 0 
z
" id="m5b85c813f2" style="stroke:#32b166;"/>
    </defs>
    <g clip-path="url(#pe8addabcb4)">
     <use style="fill:#32b166;stroke:#32b166;" x="137.200232" xlink:href="#m5b85c813f2" y="50.168426"/>
    </g>
   </g>
   <g id="PathCollection_3">
    <defs>
     <path d="M 0 0 
C 0 0 0 0 0 0 
C 0 0 0 0 0 0 
C 0 0 0 0 0 0 
C 0 0 0 0 0 0 
C 0 0 0 0 0 0 
C 0 0 0 0 0 0 
C 0 0 0 0 0 0 
C 0 0 0 0 0 0 
z
" id="mb4315b5466" style="stroke:#e866f4;"/>
    </defs>
    <g clip-path="url(#pe8addabcb4)">
     <use style="fill:#e866f4;stroke:#e866f4;" x="137.200232" xlink:href="#mb4315b5466" y="59.772434"/>
    </g>
   </g>
   <g id="PathCollection_4">
    <defs>
     <path d="M 0 0 
C 0 0 0 0 0 0 
C 0 0 0 0 0 0 
C 0 0 0 0 0 0 
C 0 0 0 0 0 0 
C 0 0 0 0 0 0 
C 0 0 0 0 0 0 
C 0 0 0 0 0 0 
C 0 0 0 0 0 0 
z
" id="mf5ee50f9fa" style="stroke:#e68332;"/>
    </defs>
    <g clip-path="url(#pe8addabcb4)">
     <use style="fill:#e68332;stroke:#e68332;" x="137.200232" xlink:href="#mf5ee50f9fa" y="69.376443"/>
    </g>
   </g>
   <g id="PathCollection_5">
    <defs>
     <path d="M 0 0 
C 0 0 0 0 0 0 
C 0 0 0 0 0 0 
C 0 0 0 0 0 0 
C 0 0 0 0 0 0 
C 0 0 0 0 0 0 
C 0 0 0 0 0 0 
C 0 0 0 0 0 0 
C 0 0 0 0 0 0 
z
" id="mc99a225600" style="stroke:#bb9832;"/>
    </defs>
    <g clip-path="url(#pe8addabcb4)">
     <use style="fill:#bb9832;stroke:#bb9832;" x="137.200232" xlink:href="#mc99a225600" y="78.980452"/>
    </g>
   </g>
   <g id="PathCollection_6">
    <defs>
     <path d="M 0 0 
C 0 0 0 0 0 0 
C 0 0 0 0 0 0 
C 0 0 0 0 0 0 
C 0 0 0 0 0 0 
C 0 0 0 0 0 0 
C 0 0 0 0 0 0 
C 0 0 0 0 0 0 
C 0 0 0 0 0 0 
z
" id="m69dbb06805" style="stroke:#f7755d;"/>
    </defs>
    <g clip-path="url(#pe8addabcb4)">
     <use style="fill:#f7755d;stroke:#f7755d;" x="137.200232" xlink:href="#m69dbb06805" y="88.584461"/>
    </g>
   </g>
   <g id="PathCollection_7">
    <defs>
     <path d="M 0 0.083333 
C 0.0221 0.083333 0.043298 0.074553 0.058926 0.058926 
C 0.074553 0.043298 0.083333 0.0221 0.083333 0 
C 0.083333 -0.0221 0.074553 -0.043298 0.058926 -0.058926 
C 0.043298 -0.074553 0.0221 -0.083333 0 -0.083333 
C -0.0221 -0.083333 -0.043298 -0.074553 -0.058926 -0.058926 
C -0.074553 -0.043298 -0.083333 -0.0221 -0.083333 0 
C -0.083333 0.0221 -0.074553 0.043298 -0.058926 0.058926 
C -0.043298 0.074553 -0.0221 0.083333 0 0.083333 
z
" id="me9ffc7c20f" style="stroke:#ce9032;"/>
    </defs>
    <g clip-path="url(#pe8addabcb4)">
     <use style="fill:#ce9032;stroke:#ce9032;" x="137.200232" xlink:href="#me9ffc7c20f" y="98.188469"/>
    </g>
   </g>
   <g id="PathCollection_8">
    <defs>
     <path d="M 0 0.083333 
C 0.0221 0.083333 0.043298 0.074553 0.058926 0.058926 
C 0.074553 0.043298 0.083333 0.0221 0.083333 0 
C 0.083333 -0.0221 0.074553 -0.043298 0.058926 -0.058926 
C 0.043298 -0.074553 0.0221 -0.083333 0 -0.083333 
C -0.0221 -0.083333 -0.043298 -0.074553 -0.058926 -0.058926 
C -0.074553 -0.043298 -0.083333 -0.0221 -0.083333 0 
C -0.083333 0.0221 -0.074553 0.043298 -0.058926 0.058926 
C -0.043298 0.074553 -0.0221 0.083333 0 0.083333 
z
" id="m0d0ebcefbe" style="stroke:#f668c2;"/>
    </defs>
    <g clip-path="url(#pe8addabcb4)">
     <use style="fill:#f668c2;stroke:#f668c2;" x="137.200232" xlink:href="#m0d0ebcefbe" y="107.792478"/>
    </g>
   </g>
   <g id="PathCollection_9">
    <defs>
     <path d="M 0 0 
C 0 0 0 0 0 0 
C 0 0 0 0 0 0 
C 0 0 0 0 0 0 
C 0 0 0 0 0 0 
C 0 0 0 0 0 0 
C 0 0 0 0 0 0 
C 0 0 0 0 0 0 
C 0 0 0 0 0 0 
z
" id="mea6bb4a960" style="stroke:#37abb1;"/>
    </defs>
    <g clip-path="url(#pe8addabcb4)">
     <use style="fill:#37abb1;stroke:#37abb1;" x="137.200232" xlink:href="#mea6bb4a960" y="117.396487"/>
    </g>
   </g>
   <g id="PathCollection_10">
    <defs>
     <path d="M 0 0 
C 0 0 0 0 0 0 
C 0 0 0 0 0 0 
C 0 0 0 0 0 0 
C 0 0 0 0 0 0 
C 0 0 0 0 0 0 
C 0 0 0 0 0 0 
C 0 0 0 0 0 0 
C 0 0 0 0 0 0 
z
" id="m81063396b9" style="stroke:#f77189;"/>
    </defs>
    <g clip-path="url(#pe8addabcb4)">
     <use style="fill:#f77189;stroke:#f77189;" x="137.200232" xlink:href="#m81063396b9" y="127.000496"/>
    </g>
   </g>
   <g id="PathCollection_11">
    <defs>
     <path d="M 0 4 
C 1.060812 4 2.078319 3.578535 2.828427 2.828427 
C 3.578535 2.078319 4 1.060812 4 0 
C 4 -1.060812 3.578535 -2.078319 2.828427 -2.828427 
C 2.078319 -3.578535 1.060812 -4 0 -4 
C -1.060812 -4 -2.078319 -3.578535 -2.828427 -2.828427 
C -3.578535 -2.078319 -4 -1.060812 -4 0 
C -4 1.060812 -3.578535 2.078319 -2.828427 2.828427 
C -2.078319 3.578535 -1.060812 4 0 4 
z
" id="m76139da2ec" style="stroke:#50b131;"/>
    </defs>
    <g clip-path="url(#pe8addabcb4)">
     <use style="fill:#50b131;stroke:#50b131;" x="148.308235" xlink:href="#m76139da2ec" y="40.564417"/>
    </g>
   </g>
   <g id="PathCollection_12">
    <g clip-path="url(#pe8addabcb4)">
     <use style="fill:#32b166;stroke:#32b166;" x="148.308235" xlink:href="#m5b85c813f2" y="50.168426"/>
    </g>
   </g>
   <g id="PathCollection_13">
    <g clip-path="url(#pe8addabcb4)">
     <use style="fill:#e866f4;stroke:#e866f4;" x="148.308235" xlink:href="#mb4315b5466" y="59.772434"/>
    </g>
   </g>
   <g id="PathCollection_14">
    <g clip-path="url(#pe8addabcb4)">
     <use style="fill:#e68332;stroke:#e68332;" x="148.308235" xlink:href="#mf5ee50f9fa" y="69.376443"/>
    </g>
   </g>
   <g id="PathCollection_15">
    <g clip-path="url(#pe8addabcb4)">
     <use style="fill:#bb9832;stroke:#bb9832;" x="148.308235" xlink:href="#mc99a225600" y="78.980452"/>
    </g>
   </g>
   <g id="PathCollection_16">
    <g clip-path="url(#pe8addabcb4)">
     <use style="fill:#f7755d;stroke:#f7755d;" x="148.308235" xlink:href="#m69dbb06805" y="88.584461"/>
    </g>
   </g>
   <g id="PathCollection_17">
    <defs>
     <path d="M 0 0 
C 0 0 0 0 0 0 
C 0 0 0 0 0 0 
C 0 0 0 0 0 0 
C 0 0 0 0 0 0 
C 0 0 0 0 0 0 
C 0 0 0 0 0 0 
C 0 0 0 0 0 0 
C 0 0 0 0 0 0 
z
" id="m1a19d55983" style="stroke:#ce9032;"/>
    </defs>
    <g clip-path="url(#pe8addabcb4)">
     <use style="fill:#ce9032;stroke:#ce9032;" x="148.308235" xlink:href="#m1a19d55983" y="98.188469"/>
    </g>
   </g>
   <g id="PathCollection_18">
    <defs>
     <path d="M 0 0 
C 0 0 0 0 0 0 
C 0 0 0 0 0 0 
C 0 0 0 0 0 0 
C 0 0 0 0 0 0 
C 0 0 0 0 0 0 
C 0 0 0 0 0 0 
C 0 0 0 0 0 0 
C 0 0 0 0 0 0 
z
" id="mf6fdeeb39d" style="stroke:#f668c2;"/>
    </defs>
    <g clip-path="url(#pe8addabcb4)">
     <use style="fill:#f668c2;stroke:#f668c2;" x="148.308235" xlink:href="#mf6fdeeb39d" y="107.792478"/>
    </g>
   </g>
   <g id="PathCollection_19">
    <g clip-path="url(#pe8addabcb4)">
     <use style="fill:#37abb1;stroke:#37abb1;" x="148.308235" xlink:href="#mea6bb4a960" y="117.396487"/>
    </g>
   </g>
   <g id="PathCollection_20">
    <g clip-path="url(#pe8addabcb4)">
     <use style="fill:#f77189;stroke:#f77189;" x="148.308235" xlink:href="#m81063396b9" y="127.000496"/>
    </g>
   </g>
   <g id="PathCollection_21">
    <defs>
     <path d="M 0 3.733333 
C 0.990092 3.733333 1.939765 3.339966 2.639865 2.639865 
C 3.339966 1.939765 3.733333 0.990092 3.733333 0 
C 3.733333 -0.990092 3.339966 -1.939765 2.639865 -2.639865 
C 1.939765 -3.339966 0.990092 -3.733333 0 -3.733333 
C -0.990092 -3.733333 -1.939765 -3.339966 -2.639865 -2.639865 
C -3.339966 -1.939765 -3.733333 -0.990092 -3.733333 0 
C -3.733333 0.990092 -3.339966 1.939765 -2.639865 2.639865 
C -1.939765 3.339966 -0.990092 3.733333 0 3.733333 
z
" id="mb5c5b99b1d" style="stroke:#50b131;"/>
    </defs>
    <g clip-path="url(#pe8addabcb4)">
     <use style="fill:#50b131;stroke:#50b131;" x="159.416239" xlink:href="#mb5c5b99b1d" y="40.564417"/>
    </g>
   </g>
   <g id="PathCollection_22">
    <g clip-path="url(#pe8addabcb4)">
     <use style="fill:#32b166;stroke:#32b166;" x="159.416239" xlink:href="#m5b85c813f2" y="50.168426"/>
    </g>
   </g>
   <g id="PathCollection_23">
    <g clip-path="url(#pe8addabcb4)">
     <use style="fill:#e866f4;stroke:#e866f4;" x="159.416239" xlink:href="#mb4315b5466" y="59.772434"/>
    </g>
   </g>
   <g id="PathCollection_24">
    <g clip-path="url(#pe8addabcb4)">
     <use style="fill:#e68332;stroke:#e68332;" x="159.416239" xlink:href="#mf5ee50f9fa" y="69.376443"/>
    </g>
   </g>
   <g id="PathCollection_25">
    <defs>
     <path d="M 0 0.133333 
C 0.03536 0.133333 0.069277 0.119284 0.094281 0.094281 
C 0.119284 0.069277 0.133333 0.03536 0.133333 0 
C 0.133333 -0.03536 0.119284 -0.069277 0.094281 -0.094281 
C 0.069277 -0.119284 0.03536 -0.133333 0 -0.133333 
C -0.03536 -0.133333 -0.069277 -0.119284 -0.094281 -0.094281 
C -0.119284 -0.069277 -0.133333 -0.03536 -0.133333 0 
C -0.133333 0.03536 -0.119284 0.069277 -0.094281 0.094281 
C -0.069277 0.119284 -0.03536 0.133333 0 0.133333 
z
" id="mb58be1e349" style="stroke:#bb9832;"/>
    </defs>
    <g clip-path="url(#pe8addabcb4)">
     <use style="fill:#bb9832;stroke:#bb9832;" x="159.416239" xlink:href="#mb58be1e349" y="78.980452"/>
    </g>
   </g>
   <g id="PathCollection_26">
    <g clip-path="url(#pe8addabcb4)">
     <use style="fill:#f7755d;stroke:#f7755d;" x="159.416239" xlink:href="#m69dbb06805" y="88.584461"/>
    </g>
   </g>
   <g id="PathCollection_27">
    <defs>
     <path d="M 0 0.133333 
C 0.03536 0.133333 0.069277 0.119284 0.094281 0.094281 
C 0.119284 0.069277 0.133333 0.03536 0.133333 0 
C 0.133333 -0.03536 0.119284 -0.069277 0.094281 -0.094281 
C 0.069277 -0.119284 0.03536 -0.133333 0 -0.133333 
C -0.03536 -0.133333 -0.069277 -0.119284 -0.094281 -0.094281 
C -0.119284 -0.069277 -0.133333 -0.03536 -0.133333 0 
C -0.133333 0.03536 -0.119284 0.069277 -0.094281 0.094281 
C -0.069277 0.119284 -0.03536 0.133333 0 0.133333 
z
" id="mc7749d8ab3" style="stroke:#ce9032;"/>
    </defs>
    <g clip-path="url(#pe8addabcb4)">
     <use style="fill:#ce9032;stroke:#ce9032;" x="159.416239" xlink:href="#mc7749d8ab3" y="98.188469"/>
    </g>
   </g>
   <g id="PathCollection_28">
    <g clip-path="url(#pe8addabcb4)">
     <use style="fill:#f668c2;stroke:#f668c2;" x="159.416239" xlink:href="#mf6fdeeb39d" y="107.792478"/>
    </g>
   </g>
   <g id="PathCollection_29">
    <g clip-path="url(#pe8addabcb4)">
     <use style="fill:#37abb1;stroke:#37abb1;" x="159.416239" xlink:href="#mea6bb4a960" y="117.396487"/>
    </g>
   </g>
   <g id="PathCollection_30">
    <g clip-path="url(#pe8addabcb4)">
     <use style="fill:#f77189;stroke:#f77189;" x="159.416239" xlink:href="#m81063396b9" y="127.000496"/>
    </g>
   </g>
   <g id="PathCollection_31">
    <defs>
     <path d="M 0 0 
C 0 0 0 0 0 0 
C 0 0 0 0 0 0 
C 0 0 0 0 0 0 
C 0 0 0 0 0 0 
C 0 0 0 0 0 0 
C 0 0 0 0 0 0 
C 0 0 0 0 0 0 
C 0 0 0 0 0 0 
z
" id="mc36eda8eda" style="stroke:#50b131;"/>
    </defs>
    <g clip-path="url(#pe8addabcb4)">
     <use style="fill:#50b131;stroke:#50b131;" x="170.524243" xlink:href="#mc36eda8eda" y="40.564417"/>
    </g>
   </g>
   <g id="PathCollection_32">
    <defs>
     <path d="M 0 3.818182 
C 1.012594 3.818182 1.98385 3.415874 2.699862 2.699862 
C 3.415874 1.98385 3.818182 1.012594 3.818182 0 
C 3.818182 -1.012594 3.415874 -1.98385 2.699862 -2.699862 
C 1.98385 -3.415874 1.012594 -3.818182 0 -3.818182 
C -1.012594 -3.818182 -1.98385 -3.415874 -2.699862 -2.699862 
C -3.415874 -1.98385 -3.818182 -1.012594 -3.818182 0 
C -3.818182 1.012594 -3.415874 1.98385 -2.699862 2.699862 
C -1.98385 3.415874 -1.012594 3.818182 0 3.818182 
z
" id="m4cd70bf5b5" style="stroke:#32b166;"/>
    </defs>
    <g clip-path="url(#pe8addabcb4)">
     <use style="fill:#32b166;stroke:#32b166;" x="170.524243" xlink:href="#m4cd70bf5b5" y="50.168426"/>
    </g>
   </g>
   <g id="PathCollection_33">
    <g clip-path="url(#pe8addabcb4)">
     <use style="fill:#e866f4;stroke:#e866f4;" x="170.524243" xlink:href="#mb4315b5466" y="59.772434"/>
    </g>
   </g>
   <g id="PathCollection_34">
    <g clip-path="url(#pe8addabcb4)">
     <use style="fill:#e68332;stroke:#e68332;" x="170.524243" xlink:href="#mf5ee50f9fa" y="69.376443"/>
    </g>
   </g>
   <g id="PathCollection_35">
    <g clip-path="url(#pe8addabcb4)">
     <use style="fill:#bb9832;stroke:#bb9832;" x="170.524243" xlink:href="#mc99a225600" y="78.980452"/>
    </g>
   </g>
   <g id="PathCollection_36">
    <g clip-path="url(#pe8addabcb4)">
     <use style="fill:#f7755d;stroke:#f7755d;" x="170.524243" xlink:href="#m69dbb06805" y="88.584461"/>
    </g>
   </g>
   <g id="PathCollection_37">
    <g clip-path="url(#pe8addabcb4)">
     <use style="fill:#ce9032;stroke:#ce9032;" x="170.524243" xlink:href="#m1a19d55983" y="98.188469"/>
    </g>
   </g>
   <g id="PathCollection_38">
    <defs>
     <path d="M 0 0.072727 
C 0.019287 0.072727 0.037788 0.065064 0.051426 0.051426 
C 0.065064 0.037788 0.072727 0.019287 0.072727 0 
C 0.072727 -0.019287 0.065064 -0.037788 0.051426 -0.051426 
C 0.037788 -0.065064 0.019287 -0.072727 0 -0.072727 
C -0.019287 -0.072727 -0.037788 -0.065064 -0.051426 -0.051426 
C -0.065064 -0.037788 -0.072727 -0.019287 -0.072727 0 
C -0.072727 0.019287 -0.065064 0.037788 -0.051426 0.051426 
C -0.037788 0.065064 -0.019287 0.072727 0 0.072727 
z
" id="m103a85d410" style="stroke:#f668c2;"/>
    </defs>
    <g clip-path="url(#pe8addabcb4)">
     <use style="fill:#f668c2;stroke:#f668c2;" x="170.524243" xlink:href="#m103a85d410" y="107.792478"/>
    </g>
   </g>
   <g id="PathCollection_39">
    <g clip-path="url(#pe8addabcb4)">
     <use style="fill:#37abb1;stroke:#37abb1;" x="170.524243" xlink:href="#mea6bb4a960" y="117.396487"/>
    </g>
   </g>
   <g id="PathCollection_40">
    <g clip-path="url(#pe8addabcb4)">
     <use style="fill:#f77189;stroke:#f77189;" x="170.524243" xlink:href="#m81063396b9" y="127.000496"/>
    </g>
   </g>
   <g id="PathCollection_41">
    <defs>
     <path d="M 0 0.529412 
C 0.140402 0.529412 0.275072 0.47363 0.374351 0.374351 
C 0.47363 0.275072 0.529412 0.140402 0.529412 0 
C 0.529412 -0.140402 0.47363 -0.275072 0.374351 -0.374351 
C 0.275072 -0.47363 0.140402 -0.529412 0 -0.529412 
C -0.140402 -0.529412 -0.275072 -0.47363 -0.374351 -0.374351 
C -0.47363 -0.275072 -0.529412 -0.140402 -0.529412 0 
C -0.529412 0.140402 -0.47363 0.275072 -0.374351 0.374351 
C -0.275072 0.47363 -0.140402 0.529412 0 0.529412 
z
" id="m4046a8a091" style="stroke:#50b131;"/>
    </defs>
    <g clip-path="url(#pe8addabcb4)">
     <use style="fill:#50b131;stroke:#50b131;" x="181.632246" xlink:href="#m4046a8a091" y="40.564417"/>
    </g>
   </g>
   <g id="PathCollection_42">
    <g clip-path="url(#pe8addabcb4)">
     <use style="fill:#32b166;stroke:#32b166;" x="181.632246" xlink:href="#m5b85c813f2" y="50.168426"/>
    </g>
   </g>
   <g id="PathCollection_43">
    <defs>
     <path d="M 0 3.411765 
C 0.904811 3.411765 1.772684 3.05228 2.412482 2.412482 
C 3.05228 1.772684 3.411765 0.904811 3.411765 0 
C 3.411765 -0.904811 3.05228 -1.772684 2.412482 -2.412482 
C 1.772684 -3.05228 0.904811 -3.411765 0 -3.411765 
C -0.904811 -3.411765 -1.772684 -3.05228 -2.412482 -2.412482 
C -3.05228 -1.772684 -3.411765 -0.904811 -3.411765 0 
C -3.411765 0.904811 -3.05228 1.772684 -2.412482 2.412482 
C -1.772684 3.05228 -0.904811 3.411765 0 3.411765 
z
" id="m4c2a4a0461" style="stroke:#e866f4;"/>
    </defs>
    <g clip-path="url(#pe8addabcb4)">
     <use style="fill:#e866f4;stroke:#e866f4;" x="181.632246" xlink:href="#m4c2a4a0461" y="59.772434"/>
    </g>
   </g>
   <g id="PathCollection_44">
    <g clip-path="url(#pe8addabcb4)">
     <use style="fill:#e68332;stroke:#e68332;" x="181.632246" xlink:href="#mf5ee50f9fa" y="69.376443"/>
    </g>
   </g>
   <g id="PathCollection_45">
    <g clip-path="url(#pe8addabcb4)">
     <use style="fill:#bb9832;stroke:#bb9832;" x="181.632246" xlink:href="#mc99a225600" y="78.980452"/>
    </g>
   </g>
   <g id="PathCollection_46">
    <g clip-path="url(#pe8addabcb4)">
     <use style="fill:#f7755d;stroke:#f7755d;" x="181.632246" xlink:href="#m69dbb06805" y="88.584461"/>
    </g>
   </g>
   <g id="PathCollection_47">
    <g clip-path="url(#pe8addabcb4)">
     <use style="fill:#ce9032;stroke:#ce9032;" x="181.632246" xlink:href="#m1a19d55983" y="98.188469"/>
    </g>
   </g>
   <g id="PathCollection_48">
    <g clip-path="url(#pe8addabcb4)">
     <use style="fill:#f668c2;stroke:#f668c2;" x="181.632246" xlink:href="#mf6fdeeb39d" y="107.792478"/>
    </g>
   </g>
   <g id="PathCollection_49">
    <g clip-path="url(#pe8addabcb4)">
     <use style="fill:#37abb1;stroke:#37abb1;" x="181.632246" xlink:href="#mea6bb4a960" y="117.396487"/>
    </g>
   </g>
   <g id="PathCollection_50">
    <g clip-path="url(#pe8addabcb4)">
     <use style="fill:#f77189;stroke:#f77189;" x="181.632246" xlink:href="#m81063396b9" y="127.000496"/>
    </g>
   </g>
   <g id="PathCollection_51">
    <defs>
     <path d="M 0 0.444444 
C 0.117868 0.444444 0.230924 0.397615 0.31427 0.31427 
C 0.397615 0.230924 0.444444 0.117868 0.444444 0 
C 0.444444 -0.117868 0.397615 -0.230924 0.31427 -0.31427 
C 0.230924 -0.397615 0.117868 -0.444444 0 -0.444444 
C -0.117868 -0.444444 -0.230924 -0.397615 -0.31427 -0.31427 
C -0.397615 -0.230924 -0.444444 -0.117868 -0.444444 0 
C -0.444444 0.117868 -0.397615 0.230924 -0.31427 0.31427 
C -0.230924 0.397615 -0.117868 0.444444 0 0.444444 
z
" id="m6ad07c691a" style="stroke:#50b131;"/>
    </defs>
    <g clip-path="url(#pe8addabcb4)">
     <use style="fill:#50b131;stroke:#50b131;" x="192.74025" xlink:href="#m6ad07c691a" y="40.564417"/>
    </g>
   </g>
   <g id="PathCollection_52">
    <g clip-path="url(#pe8addabcb4)">
     <use style="fill:#32b166;stroke:#32b166;" x="192.74025" xlink:href="#m5b85c813f2" y="50.168426"/>
    </g>
   </g>
   <g id="PathCollection_53">
    <g clip-path="url(#pe8addabcb4)">
     <use style="fill:#e866f4;stroke:#e866f4;" x="192.74025" xlink:href="#mb4315b5466" y="59.772434"/>
    </g>
   </g>
   <g id="PathCollection_54">
    <defs>
     <path d="M 0 3.111111 
C 0.825076 3.111111 1.616471 2.783305 2.199888 2.199888 
C 2.783305 1.616471 3.111111 0.825076 3.111111 0 
C 3.111111 -0.825076 2.783305 -1.616471 2.199888 -2.199888 
C 1.616471 -2.783305 0.825076 -3.111111 0 -3.111111 
C -0.825076 -3.111111 -1.616471 -2.783305 -2.199888 -2.199888 
C -2.783305 -1.616471 -3.111111 -0.825076 -3.111111 0 
C -3.111111 0.825076 -2.783305 1.616471 -2.199888 2.199888 
C -1.616471 2.783305 -0.825076 3.111111 0 3.111111 
z
" id="m6613ddae66" style="stroke:#e68332;"/>
    </defs>
    <g clip-path="url(#pe8addabcb4)">
     <use style="fill:#e68332;stroke:#e68332;" x="192.74025" xlink:href="#m6613ddae66" y="69.376443"/>
    </g>
   </g>
   <g id="PathCollection_55">
    <g clip-path="url(#pe8addabcb4)">
     <use style="fill:#bb9832;stroke:#bb9832;" x="192.74025" xlink:href="#mc99a225600" y="78.980452"/>
    </g>
   </g>
   <g id="PathCollection_56">
    <g clip-path="url(#pe8addabcb4)">
     <use style="fill:#f7755d;stroke:#f7755d;" x="192.74025" xlink:href="#m69dbb06805" y="88.584461"/>
    </g>
   </g>
   <g id="PathCollection_57">
    <defs>
     <path d="M 0 0.222222 
C 0.058934 0.222222 0.115462 0.198807 0.157135 0.157135 
C 0.198807 0.115462 0.222222 0.058934 0.222222 0 
C 0.222222 -0.058934 0.198807 -0.115462 0.157135 -0.157135 
C 0.115462 -0.198807 0.058934 -0.222222 0 -0.222222 
C -0.058934 -0.222222 -0.115462 -0.198807 -0.157135 -0.157135 
C -0.198807 -0.115462 -0.222222 -0.058934 -0.222222 0 
C -0.222222 0.058934 -0.198807 0.115462 -0.157135 0.157135 
C -0.115462 0.198807 -0.058934 0.222222 0 0.222222 
z
" id="mc9a43e25b8" style="stroke:#ce9032;"/>
    </defs>
    <g clip-path="url(#pe8addabcb4)">
     <use style="fill:#ce9032;stroke:#ce9032;" x="192.74025" xlink:href="#mc9a43e25b8" y="98.188469"/>
    </g>
   </g>
   <g id="PathCollection_58">
    <g clip-path="url(#pe8addabcb4)">
     <use style="fill:#f668c2;stroke:#f668c2;" x="192.74025" xlink:href="#mf6fdeeb39d" y="107.792478"/>
    </g>
   </g>
   <g id="PathCollection_59">
    <g clip-path="url(#pe8addabcb4)">
     <use style="fill:#37abb1;stroke:#37abb1;" x="192.74025" xlink:href="#mea6bb4a960" y="117.396487"/>
    </g>
   </g>
   <g id="PathCollection_60">
    <g clip-path="url(#pe8addabcb4)">
     <use style="fill:#f77189;stroke:#f77189;" x="192.74025" xlink:href="#m81063396b9" y="127.000496"/>
    </g>
   </g>
   <g id="PathCollection_61">
    <g clip-path="url(#pe8addabcb4)">
     <use style="fill:#50b131;stroke:#50b131;" x="203.848254" xlink:href="#mc36eda8eda" y="40.564417"/>
    </g>
   </g>
   <g id="PathCollection_62">
    <g clip-path="url(#pe8addabcb4)">
     <use style="fill:#32b166;stroke:#32b166;" x="203.848254" xlink:href="#m5b85c813f2" y="50.168426"/>
    </g>
   </g>
   <g id="PathCollection_63">
    <g clip-path="url(#pe8addabcb4)">
     <use style="fill:#e866f4;stroke:#e866f4;" x="203.848254" xlink:href="#mb4315b5466" y="59.772434"/>
    </g>
   </g>
   <g id="PathCollection_64">
    <defs>
     <path d="M 0 3.272727 
C 0.867937 3.272727 1.700443 2.927892 2.314168 2.314168 
C 2.927892 1.700443 3.272727 0.867937 3.272727 0 
C 3.272727 -0.867937 2.927892 -1.700443 2.314168 -2.314168 
C 1.700443 -2.927892 0.867937 -3.272727 0 -3.272727 
C -0.867937 -3.272727 -1.700443 -2.927892 -2.314168 -2.314168 
C -2.927892 -1.700443 -3.272727 -0.867937 -3.272727 0 
C -3.272727 0.867937 -2.927892 1.700443 -2.314168 2.314168 
C -1.700443 2.927892 -0.867937 3.272727 0 3.272727 
z
" id="mf651a4daac" style="stroke:#e68332;"/>
    </defs>
    <g clip-path="url(#pe8addabcb4)">
     <use style="fill:#e68332;stroke:#e68332;" x="203.848254" xlink:href="#mf651a4daac" y="69.376443"/>
    </g>
   </g>
   <g id="PathCollection_65">
    <defs>
     <path d="M 0 0.727273 
C 0.192875 0.727273 0.377876 0.650643 0.514259 0.514259 
C 0.650643 0.377876 0.727273 0.192875 0.727273 0 
C 0.727273 -0.192875 0.650643 -0.377876 0.514259 -0.514259 
C 0.377876 -0.650643 0.192875 -0.727273 0 -0.727273 
C -0.192875 -0.727273 -0.377876 -0.650643 -0.514259 -0.514259 
C -0.650643 -0.377876 -0.727273 -0.192875 -0.727273 0 
C -0.727273 0.192875 -0.650643 0.377876 -0.514259 0.514259 
C -0.377876 0.650643 -0.192875 0.727273 0 0.727273 
z
" id="m2a1c3d5a54" style="stroke:#bb9832;"/>
    </defs>
    <g clip-path="url(#pe8addabcb4)">
     <use style="fill:#bb9832;stroke:#bb9832;" x="203.848254" xlink:href="#m2a1c3d5a54" y="78.980452"/>
    </g>
   </g>
   <g id="PathCollection_66">
    <g clip-path="url(#pe8addabcb4)">
     <use style="fill:#f7755d;stroke:#f7755d;" x="203.848254" xlink:href="#m69dbb06805" y="88.584461"/>
    </g>
   </g>
   <g id="PathCollection_67">
    <g clip-path="url(#pe8addabcb4)">
     <use style="fill:#ce9032;stroke:#ce9032;" x="203.848254" xlink:href="#m1a19d55983" y="98.188469"/>
    </g>
   </g>
   <g id="PathCollection_68">
    <g clip-path="url(#pe8addabcb4)">
     <use style="fill:#f668c2;stroke:#f668c2;" x="203.848254" xlink:href="#mf6fdeeb39d" y="107.792478"/>
    </g>
   </g>
   <g id="PathCollection_69">
    <g clip-path="url(#pe8addabcb4)">
     <use style="fill:#37abb1;stroke:#37abb1;" x="203.848254" xlink:href="#mea6bb4a960" y="117.396487"/>
    </g>
   </g>
   <g id="PathCollection_70">
    <g clip-path="url(#pe8addabcb4)">
     <use style="fill:#f77189;stroke:#f77189;" x="203.848254" xlink:href="#m81063396b9" y="127.000496"/>
    </g>
   </g>
   <g id="PathCollection_71">
    <g clip-path="url(#pe8addabcb4)">
     <use style="fill:#50b131;stroke:#50b131;" x="214.956257" xlink:href="#mc36eda8eda" y="40.564417"/>
    </g>
   </g>
   <g id="PathCollection_72">
    <g clip-path="url(#pe8addabcb4)">
     <use style="fill:#32b166;stroke:#32b166;" x="214.956257" xlink:href="#m5b85c813f2" y="50.168426"/>
    </g>
   </g>
   <g id="PathCollection_73">
    <g clip-path="url(#pe8addabcb4)">
     <use style="fill:#e866f4;stroke:#e866f4;" x="214.956257" xlink:href="#mb4315b5466" y="59.772434"/>
    </g>
   </g>
   <g id="PathCollection_74">
    <defs>
     <path d="M 0 3.128405 
C 0.829663 3.128405 1.625456 2.798776 2.212116 2.212116 
C 2.798776 1.625456 3.128405 0.829663 3.128405 0 
C 3.128405 -0.829663 2.798776 -1.625456 2.212116 -2.212116 
C 1.625456 -2.798776 0.829663 -3.128405 0 -3.128405 
C -0.829663 -3.128405 -1.625456 -2.798776 -2.212116 -2.212116 
C -2.798776 -1.625456 -3.128405 -0.829663 -3.128405 0 
C -3.128405 0.829663 -2.798776 1.625456 -2.212116 2.212116 
C -1.625456 2.798776 -0.829663 3.128405 0 3.128405 
z
" id="m7c6de31e4d" style="stroke:#e68332;"/>
    </defs>
    <g clip-path="url(#pe8addabcb4)">
     <use style="fill:#e68332;stroke:#e68332;" x="214.956257" xlink:href="#m7c6de31e4d" y="69.376443"/>
    </g>
   </g>
   <g id="PathCollection_75">
    <defs>
     <path d="M 0 0.59144 
C 0.156852 0.59144 0.3073 0.529122 0.418211 0.418211 
C 0.529122 0.3073 0.59144 0.156852 0.59144 0 
C 0.59144 -0.156852 0.529122 -0.3073 0.418211 -0.418211 
C 0.3073 -0.529122 0.156852 -0.59144 0 -0.59144 
C -0.156852 -0.59144 -0.3073 -0.529122 -0.418211 -0.418211 
C -0.529122 -0.3073 -0.59144 -0.156852 -0.59144 0 
C -0.59144 0.156852 -0.529122 0.3073 -0.418211 0.418211 
C -0.3073 0.529122 -0.156852 0.59144 0 0.59144 
z
" id="m9d85db3d37" style="stroke:#bb9832;"/>
    </defs>
    <g clip-path="url(#pe8addabcb4)">
     <use style="fill:#bb9832;stroke:#bb9832;" x="214.956257" xlink:href="#m9d85db3d37" y="78.980452"/>
    </g>
   </g>
   <g id="PathCollection_76">
    <g clip-path="url(#pe8addabcb4)">
     <use style="fill:#f7755d;stroke:#f7755d;" x="214.956257" xlink:href="#m69dbb06805" y="88.584461"/>
    </g>
   </g>
   <g id="PathCollection_77">
    <g clip-path="url(#pe8addabcb4)">
     <use style="fill:#ce9032;stroke:#ce9032;" x="214.956257" xlink:href="#m1a19d55983" y="98.188469"/>
    </g>
   </g>
   <g id="PathCollection_78">
    <defs>
     <path d="M 0 0.233463 
C 0.061915 0.233463 0.121303 0.208864 0.165083 0.165083 
C 0.208864 0.121303 0.233463 0.061915 0.233463 0 
C 0.233463 -0.061915 0.208864 -0.121303 0.165083 -0.165083 
C 0.121303 -0.208864 0.061915 -0.233463 0 -0.233463 
C -0.061915 -0.233463 -0.121303 -0.208864 -0.165083 -0.165083 
C -0.208864 -0.121303 -0.233463 -0.061915 -0.233463 0 
C -0.233463 0.061915 -0.208864 0.121303 -0.165083 0.165083 
C -0.121303 0.208864 -0.061915 0.233463 0 0.233463 
z
" id="m129853811f" style="stroke:#f668c2;"/>
    </defs>
    <g clip-path="url(#pe8addabcb4)">
     <use style="fill:#f668c2;stroke:#f668c2;" x="214.956257" xlink:href="#m129853811f" y="107.792478"/>
    </g>
   </g>
   <g id="PathCollection_79">
    <defs>
     <path d="M 0 0.031128 
C 0.008255 0.031128 0.016174 0.027849 0.022011 0.022011 
C 0.027849 0.016174 0.031128 0.008255 0.031128 0 
C 0.031128 -0.008255 0.027849 -0.016174 0.022011 -0.022011 
C 0.016174 -0.027849 0.008255 -0.031128 0 -0.031128 
C -0.008255 -0.031128 -0.016174 -0.027849 -0.022011 -0.022011 
C -0.027849 -0.016174 -0.031128 -0.008255 -0.031128 0 
C -0.031128 0.008255 -0.027849 0.016174 -0.022011 0.022011 
C -0.016174 0.027849 -0.008255 0.031128 0 0.031128 
z
" id="m3cd1fd663a" style="stroke:#37abb1;"/>
    </defs>
    <g clip-path="url(#pe8addabcb4)">
     <use style="fill:#37abb1;stroke:#37abb1;" x="214.956257" xlink:href="#m3cd1fd663a" y="117.396487"/>
    </g>
   </g>
   <g id="PathCollection_80">
    <g clip-path="url(#pe8addabcb4)">
     <use style="fill:#f77189;stroke:#f77189;" x="214.956257" xlink:href="#m81063396b9" y="127.000496"/>
    </g>
   </g>
   <g id="PathCollection_81">
    <g clip-path="url(#pe8addabcb4)">
     <use style="fill:#50b131;stroke:#50b131;" x="226.064261" xlink:href="#mc36eda8eda" y="40.564417"/>
    </g>
   </g>
   <g id="PathCollection_82">
    <g clip-path="url(#pe8addabcb4)">
     <use style="fill:#32b166;stroke:#32b166;" x="226.064261" xlink:href="#m5b85c813f2" y="50.168426"/>
    </g>
   </g>
   <g id="PathCollection_83">
    <g clip-path="url(#pe8addabcb4)">
     <use style="fill:#e866f4;stroke:#e866f4;" x="226.064261" xlink:href="#mb4315b5466" y="59.772434"/>
    </g>
   </g>
   <g id="PathCollection_84">
    <g clip-path="url(#pe8addabcb4)">
     <use style="fill:#e68332;stroke:#e68332;" x="226.064261" xlink:href="#mf5ee50f9fa" y="69.376443"/>
    </g>
   </g>
   <g id="PathCollection_85">
    <defs>
     <path d="M 0 0.023121 
C 0.006132 0.023121 0.012013 0.020685 0.016349 0.016349 
C 0.020685 0.012013 0.023121 0.006132 0.023121 0 
C 0.023121 -0.006132 0.020685 -0.012013 0.016349 -0.016349 
C 0.012013 -0.020685 0.006132 -0.023121 0 -0.023121 
C -0.006132 -0.023121 -0.012013 -0.020685 -0.016349 -0.016349 
C -0.020685 -0.012013 -0.023121 -0.006132 -0.023121 0 
C -0.023121 0.006132 -0.020685 0.012013 -0.016349 0.016349 
C -0.012013 0.020685 -0.006132 0.023121 0 0.023121 
z
" id="m37a0e66422" style="stroke:#bb9832;"/>
    </defs>
    <g clip-path="url(#pe8addabcb4)">
     <use style="fill:#bb9832;stroke:#bb9832;" x="226.064261" xlink:href="#m37a0e66422" y="78.980452"/>
    </g>
   </g>
   <g id="PathCollection_86">
    <defs>
     <path d="M 0 3.410405 
C 0.90445 3.410405 1.771978 3.051063 2.41152 2.41152 
C 3.051063 1.771978 3.410405 0.90445 3.410405 0 
C 3.410405 -0.90445 3.051063 -1.771978 2.41152 -2.41152 
C 1.771978 -3.051063 0.90445 -3.410405 0 -3.410405 
C -0.90445 -3.410405 -1.771978 -3.051063 -2.41152 -2.41152 
C -3.051063 -1.771978 -3.410405 -0.90445 -3.410405 0 
C -3.410405 0.90445 -3.051063 1.771978 -2.41152 2.41152 
C -1.771978 3.051063 -0.90445 3.410405 0 3.410405 
z
" id="mf2a687c028" style="stroke:#f7755d;"/>
    </defs>
    <g clip-path="url(#pe8addabcb4)">
     <use style="fill:#f7755d;stroke:#f7755d;" x="226.064261" xlink:href="#mf2a687c028" y="88.584461"/>
    </g>
   </g>
   <g id="PathCollection_87">
    <g clip-path="url(#pe8addabcb4)">
     <use style="fill:#ce9032;stroke:#ce9032;" x="226.064261" xlink:href="#m1a19d55983" y="98.188469"/>
    </g>
   </g>
   <g id="PathCollection_88">
    <defs>
     <path d="M 0 0.034682 
C 0.009198 0.034682 0.01802 0.031028 0.024524 0.024524 
C 0.031028 0.01802 0.034682 0.009198 0.034682 0 
C 0.034682 -0.009198 0.031028 -0.01802 0.024524 -0.024524 
C 0.01802 -0.031028 0.009198 -0.034682 0 -0.034682 
C -0.009198 -0.034682 -0.01802 -0.031028 -0.024524 -0.024524 
C -0.031028 -0.01802 -0.034682 -0.009198 -0.034682 0 
C -0.034682 0.009198 -0.031028 0.01802 -0.024524 0.024524 
C -0.01802 0.031028 -0.009198 0.034682 0 0.034682 
z
" id="mea3387fd23" style="stroke:#f668c2;"/>
    </defs>
    <g clip-path="url(#pe8addabcb4)">
     <use style="fill:#f668c2;stroke:#f668c2;" x="226.064261" xlink:href="#mea3387fd23" y="107.792478"/>
    </g>
   </g>
   <g id="PathCollection_89">
    <defs>
     <path d="M 0 0.011561 
C 0.003066 0.011561 0.006007 0.010343 0.008175 0.008175 
C 0.010343 0.006007 0.011561 0.003066 0.011561 0 
C 0.011561 -0.003066 0.010343 -0.006007 0.008175 -0.008175 
C 0.006007 -0.010343 0.003066 -0.011561 0 -0.011561 
C -0.003066 -0.011561 -0.006007 -0.010343 -0.008175 -0.008175 
C -0.010343 -0.006007 -0.011561 -0.003066 -0.011561 0 
C -0.011561 0.003066 -0.010343 0.006007 -0.008175 0.008175 
C -0.006007 0.010343 -0.003066 0.011561 0 0.011561 
z
" id="me7be4d12eb" style="stroke:#37abb1;"/>
    </defs>
    <g clip-path="url(#pe8addabcb4)">
     <use style="fill:#37abb1;stroke:#37abb1;" x="226.064261" xlink:href="#me7be4d12eb" y="117.396487"/>
    </g>
   </g>
   <g id="PathCollection_90">
    <g clip-path="url(#pe8addabcb4)">
     <use style="fill:#f77189;stroke:#f77189;" x="226.064261" xlink:href="#m81063396b9" y="127.000496"/>
    </g>
   </g>
   <g id="PathCollection_91">
    <defs>
     <path d="M 0 0.064171 
C 0.017018 0.064171 0.033342 0.05741 0.045376 0.045376 
C 0.05741 0.033342 0.064171 0.017018 0.064171 0 
C 0.064171 -0.017018 0.05741 -0.033342 0.045376 -0.045376 
C 0.033342 -0.05741 0.017018 -0.064171 0 -0.064171 
C -0.017018 -0.064171 -0.033342 -0.05741 -0.045376 -0.045376 
C -0.05741 -0.033342 -0.064171 -0.017018 -0.064171 0 
C -0.064171 0.017018 -0.05741 0.033342 -0.045376 0.045376 
C -0.033342 0.05741 -0.017018 0.064171 0 0.064171 
z
" id="mbb38cd17f9" style="stroke:#50b131;"/>
    </defs>
    <g clip-path="url(#pe8addabcb4)">
     <use style="fill:#50b131;stroke:#50b131;" x="237.172265" xlink:href="#mbb38cd17f9" y="40.564417"/>
    </g>
   </g>
   <g id="PathCollection_92">
    <g clip-path="url(#pe8addabcb4)">
     <use style="fill:#32b166;stroke:#32b166;" x="237.172265" xlink:href="#m5b85c813f2" y="50.168426"/>
    </g>
   </g>
   <g id="PathCollection_93">
    <g clip-path="url(#pe8addabcb4)">
     <use style="fill:#e866f4;stroke:#e866f4;" x="237.172265" xlink:href="#mb4315b5466" y="59.772434"/>
    </g>
   </g>
   <g id="PathCollection_94">
    <g clip-path="url(#pe8addabcb4)">
     <use style="fill:#e68332;stroke:#e68332;" x="237.172265" xlink:href="#mf5ee50f9fa" y="69.376443"/>
    </g>
   </g>
   <g id="PathCollection_95">
    <defs>
     <path d="M 0 0.213904 
C 0.056728 0.213904 0.11114 0.191365 0.151253 0.151253 
C 0.191365 0.11114 0.213904 0.056728 0.213904 0 
C 0.213904 -0.056728 0.191365 -0.11114 0.151253 -0.151253 
C 0.11114 -0.191365 0.056728 -0.213904 0 -0.213904 
C -0.056728 -0.213904 -0.11114 -0.191365 -0.151253 -0.151253 
C -0.191365 -0.11114 -0.213904 -0.056728 -0.213904 0 
C -0.213904 0.056728 -0.191365 0.11114 -0.151253 0.151253 
C -0.11114 0.191365 -0.056728 0.213904 0 0.213904 
z
" id="ma486988150" style="stroke:#bb9832;"/>
    </defs>
    <g clip-path="url(#pe8addabcb4)">
     <use style="fill:#bb9832;stroke:#bb9832;" x="237.172265" xlink:href="#ma486988150" y="78.980452"/>
    </g>
   </g>
   <g id="PathCollection_96">
    <g clip-path="url(#pe8addabcb4)">
     <use style="fill:#f7755d;stroke:#f7755d;" x="237.172265" xlink:href="#m69dbb06805" y="88.584461"/>
    </g>
   </g>
   <g id="PathCollection_97">
    <defs>
     <path d="M 0 2.588235 
C 0.686408 2.588235 1.344795 2.315522 1.830159 1.830159 
C 2.315522 1.344795 2.588235 0.686408 2.588235 0 
C 2.588235 -0.686408 2.315522 -1.344795 1.830159 -1.830159 
C 1.344795 -2.315522 0.686408 -2.588235 0 -2.588235 
C -0.686408 -2.588235 -1.344795 -2.315522 -1.830159 -1.830159 
C -2.315522 -1.344795 -2.588235 -0.686408 -2.588235 0 
C -2.588235 0.686408 -2.315522 1.344795 -1.830159 1.830159 
C -1.344795 2.315522 -0.686408 2.588235 0 2.588235 
z
" id="m4952a2d67a" style="stroke:#ce9032;"/>
    </defs>
    <g clip-path="url(#pe8addabcb4)">
     <use style="fill:#ce9032;stroke:#ce9032;" x="237.172265" xlink:href="#m4952a2d67a" y="98.188469"/>
    </g>
   </g>
   <g id="PathCollection_98">
    <defs>
     <path d="M 0 0.470588 
C 0.124801 0.470588 0.244508 0.421004 0.332756 0.332756 
C 0.421004 0.244508 0.470588 0.124801 0.470588 0 
C 0.470588 -0.124801 0.421004 -0.244508 0.332756 -0.332756 
C 0.244508 -0.421004 0.124801 -0.470588 0 -0.470588 
C -0.124801 -0.470588 -0.244508 -0.421004 -0.332756 -0.332756 
C -0.421004 -0.244508 -0.470588 -0.124801 -0.470588 0 
C -0.470588 0.124801 -0.421004 0.244508 -0.332756 0.332756 
C -0.244508 0.421004 -0.124801 0.470588 0 0.470588 
z
" id="m62d945f384" style="stroke:#f668c2;"/>
    </defs>
    <g clip-path="url(#pe8addabcb4)">
     <use style="fill:#f668c2;stroke:#f668c2;" x="237.172265" xlink:href="#m62d945f384" y="107.792478"/>
    </g>
   </g>
   <g id="PathCollection_99">
    <defs>
     <path d="M 0 0.513369 
C 0.136147 0.513369 0.266736 0.459277 0.363007 0.363007 
C 0.459277 0.266736 0.513369 0.136147 0.513369 0 
C 0.513369 -0.136147 0.459277 -0.266736 0.363007 -0.363007 
C 0.266736 -0.459277 0.136147 -0.513369 0 -0.513369 
C -0.136147 -0.513369 -0.266736 -0.459277 -0.363007 -0.363007 
C -0.459277 -0.266736 -0.513369 -0.136147 -0.513369 0 
C -0.513369 0.136147 -0.459277 0.266736 -0.363007 0.363007 
C -0.266736 0.459277 -0.136147 0.513369 0 0.513369 
z
" id="m63062d7adf" style="stroke:#37abb1;"/>
    </defs>
    <g clip-path="url(#pe8addabcb4)">
     <use style="fill:#37abb1;stroke:#37abb1;" x="237.172265" xlink:href="#m63062d7adf" y="117.396487"/>
    </g>
   </g>
   <g id="PathCollection_100">
    <defs>
     <path d="M 0 0.064171 
C 0.017018 0.064171 0.033342 0.05741 0.045376 0.045376 
C 0.05741 0.033342 0.064171 0.017018 0.064171 0 
C 0.064171 -0.017018 0.05741 -0.033342 0.045376 -0.045376 
C 0.033342 -0.05741 0.017018 -0.064171 0 -0.064171 
C -0.017018 -0.064171 -0.033342 -0.05741 -0.045376 -0.045376 
C -0.05741 -0.033342 -0.064171 -0.017018 -0.064171 0 
C -0.064171 0.017018 -0.05741 0.033342 -0.045376 0.045376 
C -0.033342 0.05741 -0.017018 0.064171 0 0.064171 
z
" id="ma066b45c9d" style="stroke:#f77189;"/>
    </defs>
    <g clip-path="url(#pe8addabcb4)">
     <use style="fill:#f77189;stroke:#f77189;" x="237.172265" xlink:href="#ma066b45c9d" y="127.000496"/>
    </g>
   </g>
   <g id="PathCollection_101">
    <g clip-path="url(#pe8addabcb4)">
     <use style="fill:#50b131;stroke:#50b131;" x="248.280269" xlink:href="#mc36eda8eda" y="40.564417"/>
    </g>
   </g>
   <g id="PathCollection_102">
    <g clip-path="url(#pe8addabcb4)">
     <use style="fill:#32b166;stroke:#32b166;" x="248.280269" xlink:href="#m5b85c813f2" y="50.168426"/>
    </g>
   </g>
   <g id="PathCollection_103">
    <g clip-path="url(#pe8addabcb4)">
     <use style="fill:#e866f4;stroke:#e866f4;" x="248.280269" xlink:href="#mb4315b5466" y="59.772434"/>
    </g>
   </g>
   <g id="PathCollection_104">
    <g clip-path="url(#pe8addabcb4)">
     <use style="fill:#e68332;stroke:#e68332;" x="248.280269" xlink:href="#mf5ee50f9fa" y="69.376443"/>
    </g>
   </g>
   <g id="PathCollection_105">
    <defs>
     <path d="M 0 0.030769 
C 0.00816 0.030769 0.015987 0.027527 0.021757 0.021757 
C 0.027527 0.015987 0.030769 0.00816 0.030769 0 
C 0.030769 -0.00816 0.027527 -0.015987 0.021757 -0.021757 
C 0.015987 -0.027527 0.00816 -0.030769 0 -0.030769 
C -0.00816 -0.030769 -0.015987 -0.027527 -0.021757 -0.021757 
C -0.027527 -0.015987 -0.030769 -0.00816 -0.030769 0 
C -0.030769 0.00816 -0.027527 0.015987 -0.021757 0.021757 
C -0.015987 0.027527 -0.00816 0.030769 0 0.030769 
z
" id="m3cba878d55" style="stroke:#bb9832;"/>
    </defs>
    <g clip-path="url(#pe8addabcb4)">
     <use style="fill:#bb9832;stroke:#bb9832;" x="248.280269" xlink:href="#m3cba878d55" y="78.980452"/>
    </g>
   </g>
   <g id="PathCollection_106">
    <g clip-path="url(#pe8addabcb4)">
     <use style="fill:#f7755d;stroke:#f7755d;" x="248.280269" xlink:href="#m69dbb06805" y="88.584461"/>
    </g>
   </g>
   <g id="PathCollection_107">
    <g clip-path="url(#pe8addabcb4)">
     <use style="fill:#ce9032;stroke:#ce9032;" x="248.280269" xlink:href="#m1a19d55983" y="98.188469"/>
    </g>
   </g>
   <g id="PathCollection_108">
    <g clip-path="url(#pe8addabcb4)">
     <use style="fill:#f668c2;stroke:#f668c2;" x="248.280269" xlink:href="#mf6fdeeb39d" y="107.792478"/>
    </g>
   </g>
   <g id="PathCollection_109">
    <g clip-path="url(#pe8addabcb4)">
     <use style="fill:#37abb1;stroke:#37abb1;" x="248.280269" xlink:href="#mea6bb4a960" y="117.396487"/>
    </g>
   </g>
   <g id="PathCollection_110">
    <defs>
     <path d="M 0 2.738462 
C 0.726248 2.738462 1.422849 2.44992 1.936385 1.936385 
C 2.44992 1.422849 2.738462 0.726248 2.738462 0 
C 2.738462 -0.726248 2.44992 -1.422849 1.936385 -1.936385 
C 1.422849 -2.44992 0.726248 -2.738462 0 -2.738462 
C -0.726248 -2.738462 -1.422849 -2.44992 -1.936385 -1.936385 
C -2.44992 -1.422849 -2.738462 -0.726248 -2.738462 0 
C -2.738462 0.726248 -2.44992 1.422849 -1.936385 1.936385 
C -1.422849 2.44992 -0.726248 2.738462 0 2.738462 
z
" id="m2a04aca472" style="stroke:#f77189;"/>
    </defs>
    <g clip-path="url(#pe8addabcb4)">
     <use style="fill:#f77189;stroke:#f77189;" x="248.280269" xlink:href="#m2a04aca472" y="127.000496"/>
    </g>
   </g>
   <g id="matplotlib.axis_3">
    <g id="xtick_1">
     <g id="line2d_3">
      <defs>
       <path d="M 0 0 
L 0 3.5 
" id="m2d51259b24" style="stroke:#000000;stroke-width:0.8;"/>
      </defs>
      <g>
       <use style="stroke:#000000;stroke-width:0.8;" x="137.200232" xlink:href="#m2d51259b24" y="131.8025"/>
      </g>
     </g>
     <g id="text_4">
      <!-- TuPa2 -->
      <defs>
       <path d="M -0.296875 72.90625 
L 61.375 72.90625 
L 61.375 64.59375 
L 35.5 64.59375 
L 35.5 0 
L 25.59375 0 
L 25.59375 64.59375 
L -0.296875 64.59375 
z
" id="DejaVuSans-84"/>
       <path d="M 8.5 21.578125 
L 8.5 54.6875 
L 17.484375 54.6875 
L 17.484375 21.921875 
Q 17.484375 14.15625 20.5 10.265625 
Q 23.53125 6.390625 29.59375 6.390625 
Q 36.859375 6.390625 41.078125 11.03125 
Q 45.3125 15.671875 45.3125 23.6875 
L 45.3125 54.6875 
L 54.296875 54.6875 
L 54.296875 0 
L 45.3125 0 
L 45.3125 8.40625 
Q 42.046875 3.421875 37.71875 1 
Q 33.40625 -1.421875 27.6875 -1.421875 
Q 18.265625 -1.421875 13.375 4.4375 
Q 8.5 10.296875 8.5 21.578125 
z
M 31.109375 56 
z
" id="DejaVuSans-117"/>
       <path d="M 19.671875 64.796875 
L 19.671875 37.40625 
L 32.078125 37.40625 
Q 38.96875 37.40625 42.71875 40.96875 
Q 46.484375 44.53125 46.484375 51.125 
Q 46.484375 57.671875 42.71875 61.234375 
Q 38.96875 64.796875 32.078125 64.796875 
z
M 9.8125 72.90625 
L 32.078125 72.90625 
Q 44.34375 72.90625 50.609375 67.359375 
Q 56.890625 61.8125 56.890625 51.125 
Q 56.890625 40.328125 50.609375 34.8125 
Q 44.34375 29.296875 32.078125 29.296875 
L 19.671875 29.296875 
L 19.671875 0 
L 9.8125 0 
z
" id="DejaVuSans-80"/>
       <path d="M 34.28125 27.484375 
Q 23.390625 27.484375 19.1875 25 
Q 14.984375 22.515625 14.984375 16.5 
Q 14.984375 11.71875 18.140625 8.90625 
Q 21.296875 6.109375 26.703125 6.109375 
Q 34.1875 6.109375 38.703125 11.40625 
Q 43.21875 16.703125 43.21875 25.484375 
L 43.21875 27.484375 
z
M 52.203125 31.203125 
L 52.203125 0 
L 43.21875 0 
L 43.21875 8.296875 
Q 40.140625 3.328125 35.546875 0.953125 
Q 30.953125 -1.421875 24.3125 -1.421875 
Q 15.921875 -1.421875 10.953125 3.296875 
Q 6 8.015625 6 15.921875 
Q 6 25.140625 12.171875 29.828125 
Q 18.359375 34.515625 30.609375 34.515625 
L 43.21875 34.515625 
L 43.21875 35.40625 
Q 43.21875 41.609375 39.140625 45 
Q 35.0625 48.390625 27.6875 48.390625 
Q 23 48.390625 18.546875 47.265625 
Q 14.109375 46.140625 10.015625 43.890625 
L 10.015625 52.203125 
Q 14.9375 54.109375 19.578125 55.046875 
Q 24.21875 56 28.609375 56 
Q 40.484375 56 46.34375 49.84375 
Q 52.203125 43.703125 52.203125 31.203125 
z
" id="DejaVuSans-97"/>
       <path d="M 19.1875 8.296875 
L 53.609375 8.296875 
L 53.609375 0 
L 7.328125 0 
L 7.328125 8.296875 
Q 12.9375 14.109375 22.625 23.890625 
Q 32.328125 33.6875 34.8125 36.53125 
Q 39.546875 41.84375 41.421875 45.53125 
Q 43.3125 49.21875 43.3125 52.78125 
Q 43.3125 58.59375 39.234375 62.25 
Q 35.15625 65.921875 28.609375 65.921875 
Q 23.96875 65.921875 18.8125 64.3125 
Q 13.671875 62.703125 7.8125 59.421875 
L 7.8125 69.390625 
Q 13.765625 71.78125 18.9375 73 
Q 24.125 74.21875 28.421875 74.21875 
Q 39.75 74.21875 46.484375 68.546875 
Q 53.21875 62.890625 53.21875 53.421875 
Q 53.21875 48.921875 51.53125 44.890625 
Q 49.859375 40.875 45.40625 35.40625 
Q 44.1875 33.984375 37.640625 27.21875 
Q 31.109375 20.453125 19.1875 8.296875 
z
" id="DejaVuSans-50"/>
      </defs>
      <g transform="translate(139.959607 169.738438)rotate(-90)scale(0.1 -0.1)">
       <use xlink:href="#DejaVuSans-84"/>
       <use x="60.849609" xlink:href="#DejaVuSans-117"/>
       <use x="124.228516" xlink:href="#DejaVuSans-80"/>
       <use x="184.46875" xlink:href="#DejaVuSans-97"/>
       <use x="245.748047" xlink:href="#DejaVuSans-50"/>
      </g>
     </g>
    </g>
    <g id="xtick_2">
     <g id="line2d_4">
      <g>
       <use style="stroke:#000000;stroke-width:0.8;" x="148.308235" xlink:href="#m2d51259b24" y="131.8025"/>
      </g>
     </g>
     <g id="text_5">
      <!-- TuPa4 -->
      <defs>
       <path d="M 37.796875 64.3125 
L 12.890625 25.390625 
L 37.796875 25.390625 
z
M 35.203125 72.90625 
L 47.609375 72.90625 
L 47.609375 25.390625 
L 58.015625 25.390625 
L 58.015625 17.1875 
L 47.609375 17.1875 
L 47.609375 0 
L 37.796875 0 
L 37.796875 17.1875 
L 4.890625 17.1875 
L 4.890625 26.703125 
z
" id="DejaVuSans-52"/>
      </defs>
      <g transform="translate(151.06761 169.738438)rotate(-90)scale(0.1 -0.1)">
       <use xlink:href="#DejaVuSans-84"/>
       <use x="60.849609" xlink:href="#DejaVuSans-117"/>
       <use x="124.228516" xlink:href="#DejaVuSans-80"/>
       <use x="184.46875" xlink:href="#DejaVuSans-97"/>
       <use x="245.748047" xlink:href="#DejaVuSans-52"/>
      </g>
     </g>
    </g>
    <g id="xtick_3">
     <g id="line2d_5">
      <g>
       <use style="stroke:#000000;stroke-width:0.8;" x="159.416239" xlink:href="#m2d51259b24" y="131.8025"/>
      </g>
     </g>
     <g id="text_6">
      <!-- TuPa5 -->
      <defs>
       <path d="M 10.796875 72.90625 
L 49.515625 72.90625 
L 49.515625 64.59375 
L 19.828125 64.59375 
L 19.828125 46.734375 
Q 21.96875 47.46875 24.109375 47.828125 
Q 26.265625 48.1875 28.421875 48.1875 
Q 40.625 48.1875 47.75 41.5 
Q 54.890625 34.8125 54.890625 23.390625 
Q 54.890625 11.625 47.5625 5.09375 
Q 40.234375 -1.421875 26.90625 -1.421875 
Q 22.3125 -1.421875 17.546875 -0.640625 
Q 12.796875 0.140625 7.71875 1.703125 
L 7.71875 11.625 
Q 12.109375 9.234375 16.796875 8.0625 
Q 21.484375 6.890625 26.703125 6.890625 
Q 35.15625 6.890625 40.078125 11.328125 
Q 45.015625 15.765625 45.015625 23.390625 
Q 45.015625 31 40.078125 35.4375 
Q 35.15625 39.890625 26.703125 39.890625 
Q 22.75 39.890625 18.8125 39.015625 
Q 14.890625 38.140625 10.796875 36.28125 
z
" id="DejaVuSans-53"/>
      </defs>
      <g transform="translate(162.175614 169.738438)rotate(-90)scale(0.1 -0.1)">
       <use xlink:href="#DejaVuSans-84"/>
       <use x="60.849609" xlink:href="#DejaVuSans-117"/>
       <use x="124.228516" xlink:href="#DejaVuSans-80"/>
       <use x="184.46875" xlink:href="#DejaVuSans-97"/>
       <use x="245.748047" xlink:href="#DejaVuSans-53"/>
      </g>
     </g>
    </g>
    <g id="xtick_4">
     <g id="line2d_6">
      <g>
       <use style="stroke:#000000;stroke-width:0.8;" x="170.524243" xlink:href="#m2d51259b24" y="131.8025"/>
      </g>
     </g>
     <g id="text_7">
      <!-- TuPa1 -->
      <g transform="translate(173.283618 169.738438)rotate(-90)scale(0.1 -0.1)">
       <use xlink:href="#DejaVuSans-84"/>
       <use x="60.849609" xlink:href="#DejaVuSans-117"/>
       <use x="124.228516" xlink:href="#DejaVuSans-80"/>
       <use x="184.46875" xlink:href="#DejaVuSans-97"/>
       <use x="245.748047" xlink:href="#DejaVuSans-49"/>
      </g>
     </g>
    </g>
    <g id="xtick_5">
     <g id="line2d_7">
      <g>
       <use style="stroke:#000000;stroke-width:0.8;" x="181.632246" xlink:href="#m2d51259b24" y="131.8025"/>
      </g>
     </g>
     <g id="text_8">
      <!-- TuPa27 -->
      <defs>
       <path d="M 8.203125 72.90625 
L 55.078125 72.90625 
L 55.078125 68.703125 
L 28.609375 0 
L 18.3125 0 
L 43.21875 64.59375 
L 8.203125 64.59375 
z
" id="DejaVuSans-55"/>
      </defs>
      <g transform="translate(184.391621 176.100938)rotate(-90)scale(0.1 -0.1)">
       <use xlink:href="#DejaVuSans-84"/>
       <use x="60.849609" xlink:href="#DejaVuSans-117"/>
       <use x="124.228516" xlink:href="#DejaVuSans-80"/>
       <use x="184.46875" xlink:href="#DejaVuSans-97"/>
       <use x="245.748047" xlink:href="#DejaVuSans-50"/>
       <use x="309.371094" xlink:href="#DejaVuSans-55"/>
      </g>
     </g>
    </g>
    <g id="xtick_6">
     <g id="line2d_8">
      <g>
       <use style="stroke:#000000;stroke-width:0.8;" x="192.74025" xlink:href="#m2d51259b24" y="131.8025"/>
      </g>
     </g>
     <g id="text_9">
      <!-- TuPa6 -->
      <defs>
       <path d="M 33.015625 40.375 
Q 26.375 40.375 22.484375 35.828125 
Q 18.609375 31.296875 18.609375 23.390625 
Q 18.609375 15.53125 22.484375 10.953125 
Q 26.375 6.390625 33.015625 6.390625 
Q 39.65625 6.390625 43.53125 10.953125 
Q 47.40625 15.53125 47.40625 23.390625 
Q 47.40625 31.296875 43.53125 35.828125 
Q 39.65625 40.375 33.015625 40.375 
z
M 52.59375 71.296875 
L 52.59375 62.3125 
Q 48.875 64.0625 45.09375 64.984375 
Q 41.3125 65.921875 37.59375 65.921875 
Q 27.828125 65.921875 22.671875 59.328125 
Q 17.53125 52.734375 16.796875 39.40625 
Q 19.671875 43.65625 24.015625 45.921875 
Q 28.375 48.1875 33.59375 48.1875 
Q 44.578125 48.1875 50.953125 41.515625 
Q 57.328125 34.859375 57.328125 23.390625 
Q 57.328125 12.15625 50.6875 5.359375 
Q 44.046875 -1.421875 33.015625 -1.421875 
Q 20.359375 -1.421875 13.671875 8.265625 
Q 6.984375 17.96875 6.984375 36.375 
Q 6.984375 53.65625 15.1875 63.9375 
Q 23.390625 74.21875 37.203125 74.21875 
Q 40.921875 74.21875 44.703125 73.484375 
Q 48.484375 72.75 52.59375 71.296875 
z
" id="DejaVuSans-54"/>
      </defs>
      <g transform="translate(195.499625 169.738438)rotate(-90)scale(0.1 -0.1)">
       <use xlink:href="#DejaVuSans-84"/>
       <use x="60.849609" xlink:href="#DejaVuSans-117"/>
       <use x="124.228516" xlink:href="#DejaVuSans-80"/>
       <use x="184.46875" xlink:href="#DejaVuSans-97"/>
       <use x="245.748047" xlink:href="#DejaVuSans-54"/>
      </g>
     </g>
    </g>
    <g id="xtick_7">
     <g id="line2d_9">
      <g>
       <use style="stroke:#000000;stroke-width:0.8;" x="203.848254" xlink:href="#m2d51259b24" y="131.8025"/>
      </g>
     </g>
     <g id="text_10">
      <!-- TuPa3 -->
      <g transform="translate(206.607629 169.738438)rotate(-90)scale(0.1 -0.1)">
       <use xlink:href="#DejaVuSans-84"/>
       <use x="60.849609" xlink:href="#DejaVuSans-117"/>
       <use x="124.228516" xlink:href="#DejaVuSans-80"/>
       <use x="184.46875" xlink:href="#DejaVuSans-97"/>
       <use x="245.748047" xlink:href="#DejaVuSans-51"/>
      </g>
     </g>
    </g>
    <g id="xtick_8">
     <g id="line2d_10">
      <g>
       <use style="stroke:#000000;stroke-width:0.8;" x="214.956257" xlink:href="#m2d51259b24" y="131.8025"/>
      </g>
     </g>
     <g id="text_11">
      <!-- TuPa31 -->
      <g transform="translate(217.715632 176.100938)rotate(-90)scale(0.1 -0.1)">
       <use xlink:href="#DejaVuSans-84"/>
       <use x="60.849609" xlink:href="#DejaVuSans-117"/>
       <use x="124.228516" xlink:href="#DejaVuSans-80"/>
       <use x="184.46875" xlink:href="#DejaVuSans-97"/>
       <use x="245.748047" xlink:href="#DejaVuSans-51"/>
       <use x="309.371094" xlink:href="#DejaVuSans-49"/>
      </g>
     </g>
    </g>
    <g id="xtick_9">
     <g id="line2d_11">
      <g>
       <use style="stroke:#000000;stroke-width:0.8;" x="226.064261" xlink:href="#m2d51259b24" y="131.8025"/>
      </g>
     </g>
     <g id="text_12">
      <!-- TuPa28 -->
      <defs>
       <path d="M 31.78125 34.625 
Q 24.75 34.625 20.71875 30.859375 
Q 16.703125 27.09375 16.703125 20.515625 
Q 16.703125 13.921875 20.71875 10.15625 
Q 24.75 6.390625 31.78125 6.390625 
Q 38.8125 6.390625 42.859375 10.171875 
Q 46.921875 13.96875 46.921875 20.515625 
Q 46.921875 27.09375 42.890625 30.859375 
Q 38.875 34.625 31.78125 34.625 
z
M 21.921875 38.8125 
Q 15.578125 40.375 12.03125 44.71875 
Q 8.5 49.078125 8.5 55.328125 
Q 8.5 64.0625 14.71875 69.140625 
Q 20.953125 74.21875 31.78125 74.21875 
Q 42.671875 74.21875 48.875 69.140625 
Q 55.078125 64.0625 55.078125 55.328125 
Q 55.078125 49.078125 51.53125 44.71875 
Q 48 40.375 41.703125 38.8125 
Q 48.828125 37.15625 52.796875 32.3125 
Q 56.78125 27.484375 56.78125 20.515625 
Q 56.78125 9.90625 50.3125 4.234375 
Q 43.84375 -1.421875 31.78125 -1.421875 
Q 19.734375 -1.421875 13.25 4.234375 
Q 6.78125 9.90625 6.78125 20.515625 
Q 6.78125 27.484375 10.78125 32.3125 
Q 14.796875 37.15625 21.921875 38.8125 
z
M 18.3125 54.390625 
Q 18.3125 48.734375 21.84375 45.5625 
Q 25.390625 42.390625 31.78125 42.390625 
Q 38.140625 42.390625 41.71875 45.5625 
Q 45.3125 48.734375 45.3125 54.390625 
Q 45.3125 60.0625 41.71875 63.234375 
Q 38.140625 66.40625 31.78125 66.40625 
Q 25.390625 66.40625 21.84375 63.234375 
Q 18.3125 60.0625 18.3125 54.390625 
z
" id="DejaVuSans-56"/>
      </defs>
      <g transform="translate(228.823636 176.100938)rotate(-90)scale(0.1 -0.1)">
       <use xlink:href="#DejaVuSans-84"/>
       <use x="60.849609" xlink:href="#DejaVuSans-117"/>
       <use x="124.228516" xlink:href="#DejaVuSans-80"/>
       <use x="184.46875" xlink:href="#DejaVuSans-97"/>
       <use x="245.748047" xlink:href="#DejaVuSans-50"/>
       <use x="309.371094" xlink:href="#DejaVuSans-56"/>
      </g>
     </g>
    </g>
    <g id="xtick_10">
     <g id="line2d_12">
      <g>
       <use style="stroke:#000000;stroke-width:0.8;" x="237.172265" xlink:href="#m2d51259b24" y="131.8025"/>
      </g>
     </g>
     <g id="text_13">
      <!-- TuPa29 -->
      <defs>
       <path d="M 10.984375 1.515625 
L 10.984375 10.5 
Q 14.703125 8.734375 18.5 7.8125 
Q 22.3125 6.890625 25.984375 6.890625 
Q 35.75 6.890625 40.890625 13.453125 
Q 46.046875 20.015625 46.78125 33.40625 
Q 43.953125 29.203125 39.59375 26.953125 
Q 35.25 24.703125 29.984375 24.703125 
Q 19.046875 24.703125 12.671875 31.3125 
Q 6.296875 37.9375 6.296875 49.421875 
Q 6.296875 60.640625 12.9375 67.421875 
Q 19.578125 74.21875 30.609375 74.21875 
Q 43.265625 74.21875 49.921875 64.515625 
Q 56.59375 54.828125 56.59375 36.375 
Q 56.59375 19.140625 48.40625 8.859375 
Q 40.234375 -1.421875 26.421875 -1.421875 
Q 22.703125 -1.421875 18.890625 -0.6875 
Q 15.09375 0.046875 10.984375 1.515625 
z
M 30.609375 32.421875 
Q 37.25 32.421875 41.125 36.953125 
Q 45.015625 41.5 45.015625 49.421875 
Q 45.015625 57.28125 41.125 61.84375 
Q 37.25 66.40625 30.609375 66.40625 
Q 23.96875 66.40625 20.09375 61.84375 
Q 16.21875 57.28125 16.21875 49.421875 
Q 16.21875 41.5 20.09375 36.953125 
Q 23.96875 32.421875 30.609375 32.421875 
z
" id="DejaVuSans-57"/>
      </defs>
      <g transform="translate(239.93164 176.100938)rotate(-90)scale(0.1 -0.1)">
       <use xlink:href="#DejaVuSans-84"/>
       <use x="60.849609" xlink:href="#DejaVuSans-117"/>
       <use x="124.228516" xlink:href="#DejaVuSans-80"/>
       <use x="184.46875" xlink:href="#DejaVuSans-97"/>
       <use x="245.748047" xlink:href="#DejaVuSans-50"/>
       <use x="309.371094" xlink:href="#DejaVuSans-57"/>
      </g>
     </g>
    </g>
    <g id="xtick_11">
     <g id="line2d_13">
      <g>
       <use style="stroke:#000000;stroke-width:0.8;" x="248.280269" xlink:href="#m2d51259b24" y="131.8025"/>
      </g>
     </g>
     <g id="text_14">
      <!-- TuPa23 -->
      <g transform="translate(251.039644 176.100938)rotate(-90)scale(0.1 -0.1)">
       <use xlink:href="#DejaVuSans-84"/>
       <use x="60.849609" xlink:href="#DejaVuSans-117"/>
       <use x="124.228516" xlink:href="#DejaVuSans-80"/>
       <use x="184.46875" xlink:href="#DejaVuSans-97"/>
       <use x="245.748047" xlink:href="#DejaVuSans-50"/>
       <use x="309.371094" xlink:href="#DejaVuSans-51"/>
      </g>
     </g>
    </g>
   </g>
   <g id="matplotlib.axis_4">
    <g id="ytick_3">
     <g id="line2d_14">
      <g>
       <use style="stroke:#000000;stroke-width:0.8;" x="131.47" xlink:href="#m1656ce1ac7" y="40.564417"/>
      </g>
     </g>
     <g id="text_15">
      <!-- acinar -->
      <defs>
       <path d="M 9.421875 54.6875 
L 18.40625 54.6875 
L 18.40625 0 
L 9.421875 0 
z
M 9.421875 75.984375 
L 18.40625 75.984375 
L 18.40625 64.59375 
L 9.421875 64.59375 
z
" id="DejaVuSans-105"/>
       <path d="M 54.890625 33.015625 
L 54.890625 0 
L 45.90625 0 
L 45.90625 32.71875 
Q 45.90625 40.484375 42.875 44.328125 
Q 39.84375 48.1875 33.796875 48.1875 
Q 26.515625 48.1875 22.3125 43.546875 
Q 18.109375 38.921875 18.109375 30.90625 
L 18.109375 0 
L 9.078125 0 
L 9.078125 54.6875 
L 18.109375 54.6875 
L 18.109375 46.1875 
Q 21.34375 51.125 25.703125 53.5625 
Q 30.078125 56 35.796875 56 
Q 45.21875 56 50.046875 50.171875 
Q 54.890625 44.34375 54.890625 33.015625 
z
" id="DejaVuSans-110"/>
       <path d="M 41.109375 46.296875 
Q 39.59375 47.171875 37.8125 47.578125 
Q 36.03125 48 33.890625 48 
Q 26.265625 48 22.1875 43.046875 
Q 18.109375 38.09375 18.109375 28.8125 
L 18.109375 0 
L 9.078125 0 
L 9.078125 54.6875 
L 18.109375 54.6875 
L 18.109375 46.1875 
Q 20.953125 51.171875 25.484375 53.578125 
Q 30.03125 56 36.53125 56 
Q 37.453125 56 38.578125 55.875 
Q 39.703125 55.765625 41.0625 55.515625 
z
" id="DejaVuSans-114"/>
      </defs>
      <g transform="translate(93.48875 44.363636)scale(0.1 -0.1)">
       <use xlink:href="#DejaVuSans-97"/>
       <use x="61.279297" xlink:href="#DejaVuSans-99"/>
       <use x="116.259766" xlink:href="#DejaVuSans-105"/>
       <use x="144.042969" xlink:href="#DejaVuSans-110"/>
       <use x="207.421875" xlink:href="#DejaVuSans-97"/>
       <use x="268.701172" xlink:href="#DejaVuSans-114"/>
      </g>
     </g>
    </g>
    <g id="ytick_4">
     <g id="line2d_15">
      <g>
       <use style="stroke:#000000;stroke-width:0.8;" x="131.47" xlink:href="#m1656ce1ac7" y="50.168426"/>
      </g>
     </g>
     <g id="text_16">
      <!-- activated stellate -->
      <defs>
       <path d="M 18.3125 70.21875 
L 18.3125 54.6875 
L 36.8125 54.6875 
L 36.8125 47.703125 
L 18.3125 47.703125 
L 18.3125 18.015625 
Q 18.3125 11.328125 20.140625 9.421875 
Q 21.96875 7.515625 27.59375 7.515625 
L 36.8125 7.515625 
L 36.8125 0 
L 27.59375 0 
Q 17.1875 0 13.234375 3.875 
Q 9.28125 7.765625 9.28125 18.015625 
L 9.28125 47.703125 
L 2.6875 47.703125 
L 2.6875 54.6875 
L 9.28125 54.6875 
L 9.28125 70.21875 
z
" id="DejaVuSans-116"/>
       <path d="M 2.984375 54.6875 
L 12.5 54.6875 
L 29.59375 8.796875 
L 46.6875 54.6875 
L 56.203125 54.6875 
L 35.6875 0 
L 23.484375 0 
z
" id="DejaVuSans-118"/>
       <path d="M 45.40625 46.390625 
L 45.40625 75.984375 
L 54.390625 75.984375 
L 54.390625 0 
L 45.40625 0 
L 45.40625 8.203125 
Q 42.578125 3.328125 38.25 0.953125 
Q 33.9375 -1.421875 27.875 -1.421875 
Q 17.96875 -1.421875 11.734375 6.484375 
Q 5.515625 14.40625 5.515625 27.296875 
Q 5.515625 40.1875 11.734375 48.09375 
Q 17.96875 56 27.875 56 
Q 33.9375 56 38.25 53.625 
Q 42.578125 51.265625 45.40625 46.390625 
z
M 14.796875 27.296875 
Q 14.796875 17.390625 18.875 11.75 
Q 22.953125 6.109375 30.078125 6.109375 
Q 37.203125 6.109375 41.296875 11.75 
Q 45.40625 17.390625 45.40625 27.296875 
Q 45.40625 37.203125 41.296875 42.84375 
Q 37.203125 48.484375 30.078125 48.484375 
Q 22.953125 48.484375 18.875 42.84375 
Q 14.796875 37.203125 14.796875 27.296875 
z
" id="DejaVuSans-100"/>
      </defs>
      <g transform="translate(37.4575 53.967644)scale(0.1 -0.1)">
       <use xlink:href="#DejaVuSans-97"/>
       <use x="61.279297" xlink:href="#DejaVuSans-99"/>
       <use x="116.259766" xlink:href="#DejaVuSans-116"/>
       <use x="155.46875" xlink:href="#DejaVuSans-105"/>
       <use x="183.251953" xlink:href="#DejaVuSans-118"/>
       <use x="242.431641" xlink:href="#DejaVuSans-97"/>
       <use x="303.710938" xlink:href="#DejaVuSans-116"/>
       <use x="342.919922" xlink:href="#DejaVuSans-101"/>
       <use x="404.443359" xlink:href="#DejaVuSans-100"/>
       <use x="467.919922" xlink:href="#DejaVuSans-32"/>
       <use x="499.707031" xlink:href="#DejaVuSans-115"/>
       <use x="551.806641" xlink:href="#DejaVuSans-116"/>
       <use x="591.015625" xlink:href="#DejaVuSans-101"/>
       <use x="652.539062" xlink:href="#DejaVuSans-108"/>
       <use x="680.322266" xlink:href="#DejaVuSans-108"/>
       <use x="708.105469" xlink:href="#DejaVuSans-97"/>
       <use x="769.384766" xlink:href="#DejaVuSans-116"/>
       <use x="808.59375" xlink:href="#DejaVuSans-101"/>
      </g>
     </g>
    </g>
    <g id="ytick_5">
     <g id="line2d_16">
      <g>
       <use style="stroke:#000000;stroke-width:0.8;" x="131.47" xlink:href="#m1656ce1ac7" y="59.772434"/>
      </g>
     </g>
     <g id="text_17">
      <!-- nonclassical monocyte -->
      <defs>
       <path d="M 30.609375 48.390625 
Q 23.390625 48.390625 19.1875 42.75 
Q 14.984375 37.109375 14.984375 27.296875 
Q 14.984375 17.484375 19.15625 11.84375 
Q 23.34375 6.203125 30.609375 6.203125 
Q 37.796875 6.203125 41.984375 11.859375 
Q 46.1875 17.53125 46.1875 27.296875 
Q 46.1875 37.015625 41.984375 42.703125 
Q 37.796875 48.390625 30.609375 48.390625 
z
M 30.609375 56 
Q 42.328125 56 49.015625 48.375 
Q 55.71875 40.765625 55.71875 27.296875 
Q 55.71875 13.875 49.015625 6.21875 
Q 42.328125 -1.421875 30.609375 -1.421875 
Q 18.84375 -1.421875 12.171875 6.21875 
Q 5.515625 13.875 5.515625 27.296875 
Q 5.515625 40.765625 12.171875 48.375 
Q 18.84375 56 30.609375 56 
z
" id="DejaVuSans-111"/>
       <path d="M 52 44.1875 
Q 55.375 50.25 60.0625 53.125 
Q 64.75 56 71.09375 56 
Q 79.640625 56 84.28125 50.015625 
Q 88.921875 44.046875 88.921875 33.015625 
L 88.921875 0 
L 79.890625 0 
L 79.890625 32.71875 
Q 79.890625 40.578125 77.09375 44.375 
Q 74.3125 48.1875 68.609375 48.1875 
Q 61.625 48.1875 57.5625 43.546875 
Q 53.515625 38.921875 53.515625 30.90625 
L 53.515625 0 
L 44.484375 0 
L 44.484375 32.71875 
Q 44.484375 40.625 41.703125 44.40625 
Q 38.921875 48.1875 33.109375 48.1875 
Q 26.21875 48.1875 22.15625 43.53125 
Q 18.109375 38.875 18.109375 30.90625 
L 18.109375 0 
L 9.078125 0 
L 9.078125 54.6875 
L 18.109375 54.6875 
L 18.109375 46.1875 
Q 21.1875 51.21875 25.484375 53.609375 
Q 29.78125 56 35.6875 56 
Q 41.65625 56 45.828125 52.96875 
Q 50 49.953125 52 44.1875 
z
" id="DejaVuSans-109"/>
       <path d="M 32.171875 -5.078125 
Q 28.375 -14.84375 24.75 -17.8125 
Q 21.140625 -20.796875 15.09375 -20.796875 
L 7.90625 -20.796875 
L 7.90625 -13.28125 
L 13.1875 -13.28125 
Q 16.890625 -13.28125 18.9375 -11.515625 
Q 21 -9.765625 23.484375 -3.21875 
L 25.09375 0.875 
L 2.984375 54.6875 
L 12.5 54.6875 
L 29.59375 11.921875 
L 46.6875 54.6875 
L 56.203125 54.6875 
z
" id="DejaVuSans-121"/>
      </defs>
      <g transform="translate(10.685625 63.571653)scale(0.1 -0.1)">
       <use xlink:href="#DejaVuSans-110"/>
       <use x="63.378906" xlink:href="#DejaVuSans-111"/>
       <use x="124.560547" xlink:href="#DejaVuSans-110"/>
       <use x="187.939453" xlink:href="#DejaVuSans-99"/>
       <use x="242.919922" xlink:href="#DejaVuSans-108"/>
       <use x="270.703125" xlink:href="#DejaVuSans-97"/>
       <use x="331.982422" xlink:href="#DejaVuSans-115"/>
       <use x="384.082031" xlink:href="#DejaVuSans-115"/>
       <use x="436.181641" xlink:href="#DejaVuSans-105"/>
       <use x="463.964844" xlink:href="#DejaVuSans-99"/>
       <use x="518.945312" xlink:href="#DejaVuSans-97"/>
       <use x="580.224609" xlink:href="#DejaVuSans-108"/>
       <use x="608.007812" xlink:href="#DejaVuSans-32"/>
       <use x="639.794922" xlink:href="#DejaVuSans-109"/>
       <use x="737.207031" xlink:href="#DejaVuSans-111"/>
       <use x="798.388672" xlink:href="#DejaVuSans-110"/>
       <use x="861.767578" xlink:href="#DejaVuSans-111"/>
       <use x="922.949219" xlink:href="#DejaVuSans-99"/>
       <use x="977.929688" xlink:href="#DejaVuSans-121"/>
       <use x="1037.109375" xlink:href="#DejaVuSans-116"/>
       <use x="1076.318359" xlink:href="#DejaVuSans-101"/>
      </g>
     </g>
    </g>
    <g id="ytick_6">
     <g id="line2d_17">
      <g>
       <use style="stroke:#000000;stroke-width:0.8;" x="131.47" xlink:href="#m1656ce1ac7" y="69.376443"/>
      </g>
     </g>
     <g id="text_18">
      <!-- 21 -->
      <g transform="translate(111.745 73.175662)scale(0.1 -0.1)">
       <use xlink:href="#DejaVuSans-50"/>
       <use x="63.623047" xlink:href="#DejaVuSans-49"/>
      </g>
     </g>
    </g>
    <g id="ytick_7">
     <g id="line2d_18">
      <g>
       <use style="stroke:#000000;stroke-width:0.8;" x="131.47" xlink:href="#m1656ce1ac7" y="78.980452"/>
      </g>
     </g>
     <g id="text_19">
      <!-- 23 -->
      <g transform="translate(111.745 82.779671)scale(0.1 -0.1)">
       <use xlink:href="#DejaVuSans-50"/>
       <use x="63.623047" xlink:href="#DejaVuSans-51"/>
      </g>
     </g>
    </g>
    <g id="ytick_8">
     <g id="line2d_19">
      <g>
       <use style="stroke:#000000;stroke-width:0.8;" x="131.47" xlink:href="#m1656ce1ac7" y="88.584461"/>
      </g>
     </g>
     <g id="text_20">
      <!-- 20 -->
      <g transform="translate(111.745 92.383679)scale(0.1 -0.1)">
       <use xlink:href="#DejaVuSans-50"/>
       <use x="63.623047" xlink:href="#DejaVuSans-48"/>
      </g>
     </g>
    </g>
    <g id="ytick_9">
     <g id="line2d_20">
      <g>
       <use style="stroke:#000000;stroke-width:0.8;" x="131.47" xlink:href="#m1656ce1ac7" y="98.188469"/>
      </g>
     </g>
     <g id="text_21">
      <!-- 22 -->
      <g transform="translate(111.745 101.987688)scale(0.1 -0.1)">
       <use xlink:href="#DejaVuSans-50"/>
       <use x="63.623047" xlink:href="#DejaVuSans-50"/>
      </g>
     </g>
    </g>
    <g id="ytick_10">
     <g id="line2d_21">
      <g>
       <use style="stroke:#000000;stroke-width:0.8;" x="131.47" xlink:href="#m1656ce1ac7" y="107.792478"/>
      </g>
     </g>
     <g id="text_22">
      <!-- quiescent stellate -->
      <defs>
       <path d="M 14.796875 27.296875 
Q 14.796875 17.390625 18.875 11.75 
Q 22.953125 6.109375 30.078125 6.109375 
Q 37.203125 6.109375 41.296875 11.75 
Q 45.40625 17.390625 45.40625 27.296875 
Q 45.40625 37.203125 41.296875 42.84375 
Q 37.203125 48.484375 30.078125 48.484375 
Q 22.953125 48.484375 18.875 42.84375 
Q 14.796875 37.203125 14.796875 27.296875 
z
M 45.40625 8.203125 
Q 42.578125 3.328125 38.25 0.953125 
Q 33.9375 -1.421875 27.875 -1.421875 
Q 17.96875 -1.421875 11.734375 6.484375 
Q 5.515625 14.40625 5.515625 27.296875 
Q 5.515625 40.1875 11.734375 48.09375 
Q 17.96875 56 27.875 56 
Q 33.9375 56 38.25 53.625 
Q 42.578125 51.265625 45.40625 46.390625 
L 45.40625 54.6875 
L 54.390625 54.6875 
L 54.390625 -20.796875 
L 45.40625 -20.796875 
z
" id="DejaVuSans-113"/>
      </defs>
      <g transform="translate(35.515312 111.591697)scale(0.1 -0.1)">
       <use xlink:href="#DejaVuSans-113"/>
       <use x="63.476562" xlink:href="#DejaVuSans-117"/>
       <use x="126.855469" xlink:href="#DejaVuSans-105"/>
       <use x="154.638672" xlink:href="#DejaVuSans-101"/>
       <use x="216.162109" xlink:href="#DejaVuSans-115"/>
       <use x="268.261719" xlink:href="#DejaVuSans-99"/>
       <use x="323.242188" xlink:href="#DejaVuSans-101"/>
       <use x="384.765625" xlink:href="#DejaVuSans-110"/>
       <use x="448.144531" xlink:href="#DejaVuSans-116"/>
       <use x="487.353516" xlink:href="#DejaVuSans-32"/>
       <use x="519.140625" xlink:href="#DejaVuSans-115"/>
       <use x="571.240234" xlink:href="#DejaVuSans-116"/>
       <use x="610.449219" xlink:href="#DejaVuSans-101"/>
       <use x="671.972656" xlink:href="#DejaVuSans-108"/>
       <use x="699.755859" xlink:href="#DejaVuSans-108"/>
       <use x="727.539062" xlink:href="#DejaVuSans-97"/>
       <use x="788.818359" xlink:href="#DejaVuSans-116"/>
       <use x="828.027344" xlink:href="#DejaVuSans-101"/>
      </g>
     </g>
    </g>
    <g id="ytick_11">
     <g id="line2d_22">
      <g>
       <use style="stroke:#000000;stroke-width:0.8;" x="131.47" xlink:href="#m1656ce1ac7" y="117.396487"/>
      </g>
     </g>
     <g id="text_23">
      <!-- delta -->
      <g transform="translate(99.141875 121.195706)scale(0.1 -0.1)">
       <use xlink:href="#DejaVuSans-100"/>
       <use x="63.476562" xlink:href="#DejaVuSans-101"/>
       <use x="125" xlink:href="#DejaVuSans-108"/>
       <use x="152.783203" xlink:href="#DejaVuSans-116"/>
       <use x="191.992188" xlink:href="#DejaVuSans-97"/>
      </g>
     </g>
    </g>
    <g id="ytick_12">
     <g id="line2d_23">
      <g>
       <use style="stroke:#000000;stroke-width:0.8;" x="131.47" xlink:href="#m1656ce1ac7" y="127.000496"/>
      </g>
     </g>
     <g id="text_24">
      <!-- 19 -->
      <g transform="translate(111.745 130.799714)scale(0.1 -0.1)">
       <use xlink:href="#DejaVuSans-49"/>
       <use x="63.623047" xlink:href="#DejaVuSans-57"/>
      </g>
     </g>
    </g>
   </g>
   <g id="patch_16">
    <path d="M 131.47 131.8025 
L 131.47 35.762413 
" style="fill:none;stroke:#000000;stroke-linecap:square;stroke-linejoin:miter;stroke-width:0.8;"/>
   </g>
   <g id="patch_17">
    <path d="M 131.47 131.8025 
L 254.849 131.8025 
" style="fill:none;stroke:#000000;stroke-linecap:square;stroke-linejoin:miter;stroke-width:0.8;"/>
   </g>
   <g id="legend_1">
    <g id="patch_18">
     <path d="M 261.68279 132.562372 
L 310.15404 132.562372 
Q 311.75404 132.562372 311.75404 130.962372 
L 311.75404 37.520809 
Q 311.75404 35.920809 310.15404 35.920809 
L 261.68279 35.920809 
Q 260.08279 35.920809 260.08279 37.520809 
L 260.08279 130.962372 
Q 260.08279 132.562372 261.68279 132.562372 
z
" style="fill:#ffffff;opacity:0.8;stroke:#cccccc;stroke-linejoin:miter;"/>
    </g>
    <g id="text_25">
     <!-- Fraction -->
     <defs>
      <path d="M 9.8125 72.90625 
L 51.703125 72.90625 
L 51.703125 64.59375 
L 19.671875 64.59375 
L 19.671875 43.109375 
L 48.578125 43.109375 
L 48.578125 34.8125 
L 19.671875 34.8125 
L 19.671875 0 
L 9.8125 0 
z
" id="DejaVuSans-70"/>
     </defs>
     <g transform="translate(264.395759 46.719247)scale(0.1 -0.1)">
      <use xlink:href="#DejaVuSans-70"/>
      <use x="57.410156" xlink:href="#DejaVuSans-114"/>
      <use x="98.523438" xlink:href="#DejaVuSans-97"/>
      <use x="159.802734" xlink:href="#DejaVuSans-99"/>
      <use x="214.783203" xlink:href="#DejaVuSans-116"/>
      <use x="253.992188" xlink:href="#DejaVuSans-105"/>
      <use x="281.775391" xlink:href="#DejaVuSans-111"/>
      <use x="342.957031" xlink:href="#DejaVuSans-110"/>
     </g>
     <!-- of tumor -->
     <defs>
      <path d="M 37.109375 75.984375 
L 37.109375 68.5 
L 28.515625 68.5 
Q 23.6875 68.5 21.796875 66.546875 
Q 19.921875 64.59375 19.921875 59.515625 
L 19.921875 54.6875 
L 34.71875 54.6875 
L 34.71875 47.703125 
L 19.921875 47.703125 
L 19.921875 0 
L 10.890625 0 
L 10.890625 47.703125 
L 2.296875 47.703125 
L 2.296875 54.6875 
L 10.890625 54.6875 
L 10.890625 58.5 
Q 10.890625 67.625 15.140625 71.796875 
Q 19.390625 75.984375 28.609375 75.984375 
z
" id="DejaVuSans-102"/>
     </defs>
     <g transform="translate(264.395759 57.917059)scale(0.1 -0.1)">
      <use xlink:href="#DejaVuSans-111"/>
      <use x="61.181641" xlink:href="#DejaVuSans-102"/>
      <use x="96.386719" xlink:href="#DejaVuSans-32"/>
      <use x="128.173828" xlink:href="#DejaVuSans-116"/>
      <use x="167.382812" xlink:href="#DejaVuSans-117"/>
      <use x="230.761719" xlink:href="#DejaVuSans-109"/>
      <use x="328.173828" xlink:href="#DejaVuSans-111"/>
      <use x="389.355469" xlink:href="#DejaVuSans-114"/>
     </g>
     <!-- in this -->
     <defs>
      <path d="M 54.890625 33.015625 
L 54.890625 0 
L 45.90625 0 
L 45.90625 32.71875 
Q 45.90625 40.484375 42.875 44.328125 
Q 39.84375 48.1875 33.796875 48.1875 
Q 26.515625 48.1875 22.3125 43.546875 
Q 18.109375 38.921875 18.109375 30.90625 
L 18.109375 0 
L 9.078125 0 
L 9.078125 75.984375 
L 18.109375 75.984375 
L 18.109375 46.1875 
Q 21.34375 51.125 25.703125 53.5625 
Q 30.078125 56 35.796875 56 
Q 45.21875 56 50.046875 50.171875 
Q 54.890625 44.34375 54.890625 33.015625 
z
" id="DejaVuSans-104"/>
     </defs>
     <g transform="translate(264.395759 69.114872)scale(0.1 -0.1)">
      <use xlink:href="#DejaVuSans-105"/>
      <use x="27.783203" xlink:href="#DejaVuSans-110"/>
      <use x="91.162109" xlink:href="#DejaVuSans-32"/>
      <use x="122.949219" xlink:href="#DejaVuSans-116"/>
      <use x="162.158203" xlink:href="#DejaVuSans-104"/>
      <use x="225.537109" xlink:href="#DejaVuSans-105"/>
      <use x="253.320312" xlink:href="#DejaVuSans-115"/>
     </g>
     <!-- cluster: -->
     <defs>
      <path d="M 11.71875 12.40625 
L 22.015625 12.40625 
L 22.015625 0 
L 11.71875 0 
z
M 11.71875 51.703125 
L 22.015625 51.703125 
L 22.015625 39.3125 
L 11.71875 39.3125 
z
" id="DejaVuSans-58"/>
     </defs>
     <g transform="translate(264.395759 80.312684)scale(0.1 -0.1)">
      <use xlink:href="#DejaVuSans-99"/>
      <use x="54.980469" xlink:href="#DejaVuSans-108"/>
      <use x="82.763672" xlink:href="#DejaVuSans-117"/>
      <use x="146.142578" xlink:href="#DejaVuSans-115"/>
      <use x="198.242188" xlink:href="#DejaVuSans-116"/>
      <use x="237.451172" xlink:href="#DejaVuSans-101"/>
      <use x="298.974609" xlink:href="#DejaVuSans-114"/>
      <use x="340.072266" xlink:href="#DejaVuSans-58"/>
     </g>
    </g>
    <g id="line2d_24">
     <path d="M 263.28279 89.671122 
L 279.28279 89.671122 
" style="fill:none;"/>
    </g>
    <g id="line2d_25">
     <defs>
      <path d="M 0 1 
C 0.265203 1 0.51958 0.894634 0.707107 0.707107 
C 0.894634 0.51958 1 0.265203 1 0 
C 1 -0.265203 0.894634 -0.51958 0.707107 -0.707107 
C 0.51958 -0.894634 0.265203 -1 0 -1 
C -0.265203 -1 -0.51958 -0.894634 -0.707107 -0.707107 
C -0.894634 -0.51958 -1 -0.265203 -1 0 
C -1 0.265203 -0.894634 0.51958 -0.707107 0.707107 
C -0.51958 0.894634 -0.265203 1 0 1 
z
" id="mf9a80e8700" style="stroke:#333333;"/>
     </defs>
     <g>
      <use style="fill:#333333;stroke:#333333;" x="271.28279" xlink:href="#mf9a80e8700" y="89.671122"/>
     </g>
    </g>
    <g id="text_26">
     <!-- 25% -->
     <defs>
      <path d="M 72.703125 32.078125 
Q 68.453125 32.078125 66.03125 28.46875 
Q 63.625 24.859375 63.625 18.40625 
Q 63.625 12.0625 66.03125 8.421875 
Q 68.453125 4.78125 72.703125 4.78125 
Q 76.859375 4.78125 79.265625 8.421875 
Q 81.6875 12.0625 81.6875 18.40625 
Q 81.6875 24.8125 79.265625 28.4375 
Q 76.859375 32.078125 72.703125 32.078125 
z
M 72.703125 38.28125 
Q 80.421875 38.28125 84.953125 32.90625 
Q 89.5 27.546875 89.5 18.40625 
Q 89.5 9.28125 84.9375 3.921875 
Q 80.375 -1.421875 72.703125 -1.421875 
Q 64.890625 -1.421875 60.34375 3.921875 
Q 55.8125 9.28125 55.8125 18.40625 
Q 55.8125 27.59375 60.375 32.9375 
Q 64.9375 38.28125 72.703125 38.28125 
z
M 22.3125 68.015625 
Q 18.109375 68.015625 15.6875 64.375 
Q 13.28125 60.75 13.28125 54.390625 
Q 13.28125 47.953125 15.671875 44.328125 
Q 18.0625 40.71875 22.3125 40.71875 
Q 26.5625 40.71875 28.96875 44.328125 
Q 31.390625 47.953125 31.390625 54.390625 
Q 31.390625 60.6875 28.953125 64.34375 
Q 26.515625 68.015625 22.3125 68.015625 
z
M 66.40625 74.21875 
L 74.21875 74.21875 
L 28.609375 -1.421875 
L 20.796875 -1.421875 
z
M 22.3125 74.21875 
Q 30.03125 74.21875 34.609375 68.875 
Q 39.203125 63.53125 39.203125 54.390625 
Q 39.203125 45.171875 34.640625 39.84375 
Q 30.078125 34.515625 22.3125 34.515625 
Q 14.546875 34.515625 10.03125 39.859375 
Q 5.515625 45.21875 5.515625 54.390625 
Q 5.515625 63.484375 10.046875 68.84375 
Q 14.59375 74.21875 22.3125 74.21875 
z
" id="DejaVuSans-37"/>
     </defs>
     <g transform="translate(285.68279 92.471122)scale(0.08 -0.08)">
      <use xlink:href="#DejaVuSans-50"/>
      <use x="63.623047" xlink:href="#DejaVuSans-53"/>
      <use x="127.246094" xlink:href="#DejaVuSans-37"/>
     </g>
    </g>
    <g id="line2d_26">
     <path d="M 263.28279 101.413622 
L 279.28279 101.413622 
" style="fill:none;"/>
    </g>
    <g id="line2d_27">
     <defs>
      <path d="M 0 2 
C 0.530406 2 1.03916 1.789267 1.414214 1.414214 
C 1.789267 1.03916 2 0.530406 2 0 
C 2 -0.530406 1.789267 -1.03916 1.414214 -1.414214 
C 1.03916 -1.789267 0.530406 -2 0 -2 
C -0.530406 -2 -1.03916 -1.789267 -1.414214 -1.414214 
C -1.789267 -1.03916 -2 -0.530406 -2 0 
C -2 0.530406 -1.789267 1.03916 -1.414214 1.414214 
C -1.03916 1.789267 -0.530406 2 0 2 
z
" id="m54728d5742" style="stroke:#333333;"/>
     </defs>
     <g>
      <use style="fill:#333333;stroke:#333333;" x="271.28279" xlink:href="#m54728d5742" y="101.413622"/>
     </g>
    </g>
    <g id="text_27">
     <!-- 50% -->
     <g transform="translate(285.68279 104.213622)scale(0.08 -0.08)">
      <use xlink:href="#DejaVuSans-53"/>
      <use x="63.623047" xlink:href="#DejaVuSans-48"/>
      <use x="127.246094" xlink:href="#DejaVuSans-37"/>
     </g>
    </g>
    <g id="line2d_28">
     <path d="M 263.28279 113.156122 
L 279.28279 113.156122 
" style="fill:none;"/>
    </g>
    <g id="line2d_29">
     <defs>
      <path d="M 0 3 
C 0.795609 3 1.55874 2.683901 2.12132 2.12132 
C 2.683901 1.55874 3 0.795609 3 0 
C 3 -0.795609 2.683901 -1.55874 2.12132 -2.12132 
C 1.55874 -2.683901 0.795609 -3 0 -3 
C -0.795609 -3 -1.55874 -2.683901 -2.12132 -2.12132 
C -2.683901 -1.55874 -3 -0.795609 -3 0 
C -3 0.795609 -2.683901 1.55874 -2.12132 2.12132 
C -1.55874 2.683901 -0.795609 3 0 3 
z
" id="mf586752817" style="stroke:#333333;"/>
     </defs>
     <g>
      <use style="fill:#333333;stroke:#333333;" x="271.28279" xlink:href="#mf586752817" y="113.156122"/>
     </g>
    </g>
    <g id="text_28">
     <!-- 75% -->
     <g transform="translate(285.68279 115.956122)scale(0.08 -0.08)">
      <use xlink:href="#DejaVuSans-55"/>
      <use x="63.623047" xlink:href="#DejaVuSans-53"/>
      <use x="127.246094" xlink:href="#DejaVuSans-37"/>
     </g>
    </g>
    <g id="line2d_30">
     <path d="M 263.28279 124.898622 
L 279.28279 124.898622 
" style="fill:none;"/>
    </g>
    <g id="line2d_31">
     <defs>
      <path d="M 0 4 
C 1.060812 4 2.078319 3.578535 2.828427 2.828427 
C 3.578535 2.078319 4 1.060812 4 0 
C 4 -1.060812 3.578535 -2.078319 2.828427 -2.828427 
C 2.078319 -3.578535 1.060812 -4 0 -4 
C -1.060812 -4 -2.078319 -3.578535 -2.828427 -2.828427 
C -3.578535 -2.078319 -4 -1.060812 -4 0 
C -4 1.060812 -3.578535 2.078319 -2.828427 2.828427 
C -2.078319 3.578535 -1.060812 4 0 4 
z
" id="ma9b49977a0" style="stroke:#333333;"/>
     </defs>
     <g>
      <use style="fill:#333333;stroke:#333333;" x="271.28279" xlink:href="#ma9b49977a0" y="124.898622"/>
     </g>
    </g>
    <g id="text_29">
     <!-- 100% -->
     <g transform="translate(285.68279 127.698622)scale(0.08 -0.08)">
      <use xlink:href="#DejaVuSans-49"/>
      <use x="63.623047" xlink:href="#DejaVuSans-48"/>
      <use x="127.246094" xlink:href="#DejaVuSans-48"/>
      <use x="190.869141" xlink:href="#DejaVuSans-37"/>
     </g>
    </g>
   </g>
  </g>
 </g>
 <defs>
  <clipPath id="p955d7cce19">
   <rect height="13.720012" width="123.379" x="131.47" y="15.696"/>
  </clipPath>
  <clipPath id="pe8addabcb4">
   <rect height="96.040087" width="123.379" x="131.47" y="35.762413"/>
  </clipPath>
 </defs>
</svg>
